<svg width="96" height="96" viewBox="0 0 96 96" fill="none" xmlns="http://www.w3.org/2000/svg">
<path d="M46.5 81.7516C45.0495 81.7382 43.6062 81.5468 42.2025 81.1816C41.6712 81.047 41.152 80.8689 40.65 80.6491C39.737 80.2333 38.9199 79.6333 38.25 78.8866C37.9273 78.5165 37.6433 78.1144 37.4025 77.6866C37.1428 77.2247 36.9819 76.7139 36.93 76.1866C36.8722 75.7221 36.9053 75.2509 37.0275 74.7991C37.1582 74.3541 37.3609 73.9336 37.6275 73.5541C37.9619 73.0897 38.4079 72.717 38.9244 72.4706C39.4409 72.2241 40.0111 72.1118 40.5825 72.1441C40.9275 72.1441 40.875 72.3391 40.6575 72.6091C40.3853 72.9633 40.0843 73.2945 39.7575 73.5991C39.4703 73.8435 39.218 74.1262 39.0075 74.4391C38.8112 74.7105 38.6803 75.0237 38.625 75.3541C38.5334 75.6789 38.5205 76.0208 38.5875 76.3516C38.6843 76.7458 38.8465 77.121 39.0675 77.4616C39.3649 77.9218 39.7496 78.3193 40.2 78.6316C40.6732 78.9319 41.1758 79.1832 41.7 79.3816C42.9333 79.8292 44.2288 80.0822 45.54 80.1316C46.3718 80.1803 47.2057 80.1803 48.0375 80.1316C49.307 80.0825 50.566 79.8811 51.7875 79.5316C52.697 79.2624 53.5727 78.89 54.3975 78.4216C54.585 78.3241 54.75 78.2116 54.93 78.1066C55.5975 77.7166 55.845 77.6416 56.145 77.7541C56.2139 77.7721 56.2815 77.7946 56.3475 77.8216C56.5125 77.9041 56.3925 78.2866 55.9275 78.7216C55.2237 79.3759 54.4339 79.931 53.58 80.3716C53.1452 80.5988 52.6968 80.7992 52.2375 80.9716C51.765 81.1216 51.285 81.2416 50.805 81.3466C49.3802 81.6287 47.9297 81.7595 46.4775 81.7366L46.5 81.7516Z" fill="#231F20"/>
<path d="M50.3399 82.2913C49.5713 82.4899 48.7927 82.6476 48.0074 82.7638L47.1449 82.8763C46.1246 82.9552 45.0988 82.925 44.0849 82.7863C43.6349 82.7263 43.1849 82.6513 42.7424 82.5538C42.1614 82.4485 41.6078 82.2265 41.1149 81.9013C40.9649 81.7888 41.1149 81.6538 41.3024 81.5713C41.5457 81.489 41.8092 81.489 42.0524 81.5713C43.0887 81.9278 44.1686 82.1423 45.2624 82.2088C45.9523 82.2435 46.6438 82.2033 47.3249 82.0888C48.0832 81.9939 48.8347 81.8511 49.5749 81.6613C50.0324 81.5488 50.4824 81.3988 50.9324 81.2563L51.9524 80.8963L52.9349 80.4763C53.4374 80.2288 53.8949 79.9363 54.3824 79.6738L54.7499 79.5013C55.1474 79.2838 55.3049 79.2688 55.4999 79.3363L55.6049 79.3813C55.6949 79.4413 55.6049 79.6138 55.3199 79.8463C54.5224 80.5357 53.6247 81.0997 52.6574 81.5188C51.9324 81.8576 51.1796 82.1336 50.4074 82.3438L50.3399 82.2913Z" fill="#231F20"/>
<path d="M51.8403 87.1287C52.0957 86.8935 52.3133 86.6203 52.4853 86.3187C52.5603 86.2062 52.5828 86.0637 52.6503 85.9512C52.8932 85.5087 53.111 85.053 53.3028 84.5862C53.4003 84.3837 53.4753 84.1587 53.5578 83.9412C53.6278 83.6193 53.8017 83.3294 54.0528 83.1162C54.1428 83.0412 54.2403 83.1837 54.3378 83.3562C54.4353 83.5287 54.5403 83.6862 54.5103 83.8287C54.4165 84.3903 54.2369 84.9341 53.9778 85.4412C53.7903 85.7562 53.7153 86.1387 53.5503 86.4912C53.368 86.8847 53.1469 87.259 52.8903 87.6087C52.7165 87.8238 52.5204 88.0199 52.3053 88.1937L52.0653 88.3962L51.7803 88.5462C51.5977 88.6502 51.404 88.7332 51.2028 88.7937C51.0559 88.8631 50.9027 88.9183 50.7453 88.9587C50.5886 89.0126 50.4281 89.0552 50.2653 89.0862C50.1955 89.0937 50.1251 89.0937 50.0553 89.0862C49.7928 89.0862 49.7178 88.9737 49.6953 88.7112C49.6953 88.6512 49.6953 88.5987 49.6953 88.5462C49.7008 88.457 49.7284 88.3706 49.7755 88.2947C49.8226 88.2187 49.8878 88.1557 49.9653 88.1112C50.4378 87.8787 50.7828 87.8037 51.1203 87.6387C51.3812 87.5015 51.6191 87.3244 51.8253 87.1137L51.8403 87.1287Z" fill="#231F20"/>
<path d="M40.0276 73.8912C39.8116 73.9677 39.6071 74.0737 39.4201 74.2062C39.3526 74.2587 39.3151 74.3337 39.2401 74.3937C38.9798 74.5916 38.7498 74.8266 38.5576 75.0912C38.4902 75.2099 38.4565 75.3448 38.4601 75.4812C38.4601 75.6537 38.5201 75.7512 38.3851 75.8862C38.1838 76.0063 37.9584 76.0805 37.7251 76.1037C37.4176 76.1562 36.9751 76.0062 36.9751 75.7962C36.9048 75.474 36.939 75.1378 37.0726 74.8362C37.1818 74.5707 37.3483 74.3325 37.5601 74.1387C37.8076 73.9137 37.9201 73.6137 38.1376 73.3887C38.3813 73.1447 38.6532 72.9307 38.9476 72.7512C39.1368 72.6398 39.335 72.5445 39.5401 72.4662C39.6901 72.3987 39.8701 72.3687 40.0276 72.3162C40.1851 72.2637 40.3726 72.2637 40.5451 72.2487C40.7176 72.2337 40.8226 72.2112 40.9651 72.2112C41.111 72.2088 41.2568 72.2214 41.4001 72.2487C41.4642 72.2546 41.5247 72.2809 41.5726 72.3237C41.7601 72.4662 41.7676 72.6012 41.6326 72.8712C41.6046 72.9312 41.572 72.9888 41.5351 73.0437C41.4311 73.2097 41.2866 73.3465 41.1151 73.4412C40.6951 73.6737 40.6726 73.7412 40.5001 73.7862C40.3433 73.8206 40.192 73.8761 40.0501 73.9512L40.0276 73.8912Z" fill="#231F20"/>
<path d="M27.1645 61.2828C25.3451 59.2158 23.7628 56.9517 22.447 54.5328C22.1995 54.0903 21.982 53.6328 21.772 53.1753C21.546 52.7245 21.3456 52.2613 21.172 51.7878C19.8505 48.4724 19.3016 44.8995 19.567 41.3403C19.612 40.5903 19.7395 39.7728 19.837 38.9928C19.9345 38.2128 20.0995 37.4478 20.317 36.6978C20.7352 34.7265 21.5408 32.8578 22.687 31.2003C23.0545 30.6903 23.0845 30.8178 22.9045 31.3203C22.7245 31.8228 22.4095 32.7003 21.997 33.7503C21.8095 34.2078 21.652 34.6728 21.5095 35.1453C21.367 35.6178 21.262 36.1053 21.1195 36.5853C20.9805 37.0612 20.8678 37.5445 20.782 38.0328C20.692 38.5203 20.5645 39.0003 20.512 39.5328C20.2062 41.5183 20.1583 43.535 20.3695 45.5328C20.6433 47.9517 21.3229 50.3072 22.3795 52.5003C23.5165 54.969 24.9523 57.2889 26.6545 59.4078C27.6899 60.7198 28.7992 61.9719 29.977 63.1578C31.7574 64.9822 33.6298 66.7145 35.587 68.3478C37.087 69.6228 38.587 70.8003 40.1395 72.0303C40.4695 72.3078 40.807 72.5628 41.1295 72.8553C42.3445 73.9203 42.6295 74.3553 42.787 74.7078C42.8232 74.7854 42.8532 74.8656 42.877 74.9478C42.877 75.1353 42.352 74.7603 41.4445 74.0253C38.7445 71.8653 35.812 69.6228 33.0295 67.1628C30.9405 65.3388 28.9761 63.3769 27.1495 61.2903L27.1645 61.2828Z" fill="#231F20"/>
<path d="M23.5873 29.7526C24.77 28.1927 26.1432 26.7868 27.6748 25.5676C29.2204 24.393 30.8874 23.3873 32.6473 22.5676C37.4677 20.3431 42.8717 19.7126 48.0748 20.7676C48.7573 20.9026 49.4473 21.0676 50.1223 21.2701C50.7973 21.4726 51.4648 21.7501 52.1323 22.0201C54.4347 23.0439 56.4832 24.5624 58.1323 26.4676C59.7592 28.3443 61.03 30.5022 61.8823 32.8351C63.5379 37.4493 64.0274 42.4011 63.3073 47.2501C63.036 49.3777 62.6124 51.4831 62.0398 53.5501C61.4706 55.591 60.7895 57.599 59.9998 59.5651C59.021 62.1028 57.8709 64.571 56.5573 66.9526C55.2645 69.3384 53.8111 71.6337 52.2073 73.8226C51.2098 75.1876 51.1648 74.8651 51.7273 73.5376C52.0123 72.8776 52.4248 71.9476 52.9423 70.8451C53.4598 69.7426 54.0673 68.4601 54.7798 67.0951C56.0473 64.6876 57.1348 62.1976 58.1698 59.7001C59.2099 57.2068 60.0721 54.6428 60.7498 52.0276C62.1979 46.8398 62.36 41.3772 61.2223 36.1126C60.8404 34.5438 60.2923 33.0202 59.5873 31.5676C58.8718 30.1135 57.9581 28.7657 56.8723 27.5626C55.7972 26.3494 54.5304 25.3207 53.1223 24.5176C51.7104 23.7279 50.196 23.1373 48.6223 22.7626C45.0976 21.9283 41.4284 21.915 37.8978 22.7239C34.3672 23.5327 31.0697 25.1421 28.2598 27.4276C26.5461 28.8297 25.1025 30.5326 23.9998 32.4526C23.7523 32.9476 23.4898 33.4351 23.2498 33.9526L22.6798 35.5051C22.3589 36.5777 22.1084 37.67 21.9298 38.7751L21.8248 39.3976L21.7723 40.0351L21.6748 41.3026V43.2076L21.7348 43.8376C21.8681 45.5344 22.1953 47.2103 22.7098 48.8326C23.2233 50.4591 23.8835 52.0356 24.6823 53.5426C25.4945 55.0453 26.404 56.4934 27.4048 57.8776C30.5398 62.1676 34.3948 65.7376 38.3548 69.2326C39.2248 69.9826 40.0948 70.7326 40.9648 71.5426C44.2048 74.4751 45.0823 75.7651 45.2473 76.7926C45.293 77.0121 45.3131 77.2361 45.3073 77.4601C45.3073 77.5801 45.2173 77.5726 45.0898 77.4601C44.9623 77.3476 44.8198 77.1526 44.5423 76.8826C44.0248 76.3501 43.1698 75.5101 41.9848 74.4676C38.4298 71.4151 34.6048 68.3176 31.1098 64.7176C27.4393 61.1353 24.4261 56.9366 22.2073 52.3126C21.4135 50.5298 20.8053 48.67 20.3923 46.7626C19.9973 44.8341 19.8412 42.8643 19.9273 40.8976C20.025 38.9337 20.3522 36.988 20.9023 35.1001C21.5001 33.1847 22.3906 31.3733 23.5423 29.7301L23.5873 29.7526Z" fill="#231F20"/>
<path d="M42.9748 80.5422C44.9404 80.8796 46.9491 80.8796 48.9148 80.5422C49.6648 80.4147 50.3697 80.2122 51.0672 80.0622C52.2889 79.7194 53.4592 79.2149 54.5473 78.5622C55.6392 77.9347 56.5973 77.0989 57.3672 76.1022C57.6739 75.7041 57.8572 75.2248 57.8945 74.7237C57.9318 74.2225 57.8215 73.7214 57.5772 73.2822C57.1894 72.7136 56.6762 72.2414 56.0772 71.9022C55.4558 71.5286 54.8004 71.2147 54.1198 70.9647C53.6923 70.8222 53.7523 70.6797 54.1948 70.5597C54.9282 70.3741 55.7021 70.432 56.3997 70.7247C57.2415 71.0696 57.9876 71.6125 58.5747 72.3072C58.8883 72.7089 59.1271 73.1636 59.2798 73.6497C59.4215 74.1581 59.4395 74.693 59.3323 75.2097C59.1289 76.1404 58.681 76.9999 58.0347 77.6997C57.4683 78.3393 56.8113 78.8927 56.0847 79.3422C55.2479 79.8979 54.3761 80.3989 53.4748 80.8422C53.0154 81.0641 52.5447 81.2618 52.0647 81.4347C51.8322 81.5247 51.5697 81.5922 51.3147 81.6672L50.5647 81.8247C48.4461 82.3251 46.2642 82.5046 44.0923 82.3572C42.7399 82.2432 41.4098 81.9429 40.1398 81.4647C39.1715 81.0506 38.2792 80.4778 37.4998 79.7697C36.6876 79.0638 36.0856 78.1478 35.7598 77.1222C35.5085 76.2882 35.5085 75.3987 35.7598 74.5647C36.058 73.7565 36.559 73.0385 37.2148 72.4797C37.4915 72.2385 37.7875 72.0203 38.0998 71.8272C38.5079 71.5718 38.9654 71.4057 39.4423 71.3397C39.5674 71.3235 39.6945 71.3331 39.8157 71.3679C39.937 71.4027 40.0498 71.4621 40.1472 71.5422C40.2342 71.5951 40.3126 71.6608 40.3798 71.7372C40.5598 71.9772 40.1398 72.3297 39.4423 72.7722C38.4474 73.2964 37.6849 74.174 37.3048 75.2322C37.1771 75.6987 37.1771 76.1908 37.3048 76.6572C37.4628 77.1707 37.7173 77.6492 38.0548 78.0672C39.3586 79.4101 41.0804 80.2696 42.9373 80.5047L42.9748 80.5422Z" fill="#231F20"/>
<path d="M40.9725 76.9953C42.0766 77.4453 43.2376 77.7406 44.4225 77.8728C44.865 77.9253 45.3075 77.9178 45.75 77.9328C47.3353 78.017 48.9244 77.8705 50.4675 77.4978C51.1475 77.319 51.8063 77.0675 52.4325 76.7478C53.1938 76.3508 53.8936 75.8455 54.51 75.2478C54.705 75.0678 54.8475 75.1728 54.8775 75.4953C54.893 75.7407 54.8524 75.9864 54.7589 76.2138C54.6653 76.4412 54.5212 76.6443 54.3375 76.8078C52.7755 78.1171 50.8424 78.904 48.81 79.0578C47.6191 79.2187 46.4192 79.3038 45.2175 79.3128C43.8822 79.2921 42.5566 79.0825 41.28 78.6903C40.4881 78.4382 39.7319 78.0853 39.03 77.6403C38.4854 77.2883 37.9995 76.853 37.59 76.3503C37.3875 76.0922 37.2092 75.8161 37.0575 75.5253C36.8567 75.1926 36.7504 74.8114 36.75 74.4228C36.7714 73.8689 36.951 73.3328 37.2675 72.8778C37.5583 72.4483 37.9241 72.0748 38.3475 71.7753C38.5306 71.6369 38.7265 71.5164 38.9325 71.4153C39.735 71.0553 40.1025 71.1978 40.2825 71.5128C40.3287 71.5804 40.3665 71.6535 40.395 71.7303C40.455 71.9703 40.1925 72.1953 39.81 72.4053C39.2163 72.7155 38.7164 73.179 38.3625 73.7478C38.2316 73.9514 38.1613 74.1882 38.16 74.4303C38.1675 74.509 38.1904 74.5855 38.2275 74.6553C38.2275 74.7378 38.3775 74.9178 38.445 75.0528C39.0743 75.9299 39.9559 76.5945 40.9725 76.9578V76.9953Z" fill="#231F20"/>
<path d="M45.2922 83.8585C46.3214 84.0826 47.3797 84.1409 48.4272 84.031C48.8208 83.986 49.2115 83.9184 49.5972 83.8285C50.9985 83.5909 52.3643 83.1776 53.6622 82.5985C54.2344 82.3332 54.7774 82.0089 55.2822 81.631C55.9008 81.1502 56.4778 80.6183 57.0072 80.041C57.1872 79.876 57.3447 79.9735 57.4272 80.2885C57.4704 80.4887 57.4704 80.6958 57.4272 80.896C57.3607 81.1397 57.2487 81.3687 57.0972 81.571C55.891 82.9336 54.3348 83.9399 52.5972 84.481C51.568 84.8456 50.5188 85.1511 49.4547 85.396C48.2587 85.6221 47.0369 85.6802 45.8247 85.5685C45.0577 85.4851 44.3028 85.314 43.5747 85.0585C42.5043 84.653 41.5253 84.0386 40.6947 83.251C40.0202 82.6671 39.4473 81.9752 38.9997 81.2035C38.9097 81.0235 38.8197 80.851 38.7447 80.671C38.5272 79.921 38.6547 79.6885 38.9547 79.471C39.0161 79.4186 39.0813 79.371 39.1497 79.3285C39.3597 79.216 39.6747 79.4335 39.9522 79.816C40.3572 80.386 40.7022 80.926 41.1147 81.421C41.5206 81.9168 41.9984 82.3491 42.5322 82.7035C43.3697 83.2489 44.3041 83.6282 45.2847 83.821L45.2922 83.8585Z" fill="#231F20"/>
<path d="M53.9178 87.0006C53.5153 87.6126 53.0074 88.1484 52.4178 88.5831C52.1887 88.7595 51.9363 88.9033 51.6678 89.0106C51.1926 89.2026 50.6742 89.2622 50.1678 89.1831C49.7043 89.1094 49.2575 88.9545 48.8478 88.7256C48.5028 88.5381 48.1653 88.3506 47.8428 88.1406C47.6403 88.0056 47.4303 87.8706 47.2428 87.7206C47.064 87.5505 46.91 87.3561 46.7853 87.1431C46.7028 87.0081 46.8453 86.8956 47.0778 86.8281C47.3222 86.7533 47.5834 86.7533 47.8278 86.8281C48.5049 87.3176 49.2375 87.7255 50.0103 88.0431C50.2298 88.1101 50.4615 88.1274 50.6886 88.0936C50.9156 88.0599 51.1323 87.976 51.3228 87.8481C51.8085 87.5552 52.2254 87.1613 52.5453 86.6931C52.7668 86.3829 52.9697 86.0598 53.1528 85.7256C53.4303 85.2081 53.7153 84.6756 53.9553 84.1206C54.1428 83.6931 54.2703 83.2356 54.4728 82.7931C54.5178 82.6956 54.5553 82.5981 54.6078 82.5006C54.8253 82.1631 55.0053 82.1256 55.3203 82.2531C55.3878 82.2531 55.4553 82.2981 55.5078 82.3281C55.6103 82.3974 55.6894 82.4961 55.7349 82.6112C55.7804 82.7263 55.7901 82.8524 55.7628 82.9731C55.561 83.7719 55.2612 84.5427 54.8703 85.2681C54.5778 85.8381 54.2553 86.4306 53.8803 87.0231L53.9178 87.0006Z" fill="#231F20"/>
<path d="M41.16 37.8238C41.1337 37.4392 41.1337 37.0533 41.16 36.6688L41.205 36.0613L41.25 35.6263C41.295 35.4613 41.355 35.3113 41.4 35.1538C41.4915 34.8658 41.6577 34.6072 41.8817 34.4043C42.1056 34.2014 42.3794 34.0615 42.675 33.9988C42.9719 33.9496 43.2762 33.97 43.5638 34.0586C43.8515 34.1471 44.1146 34.3012 44.3325 34.5088C44.4501 34.6189 44.5604 34.7367 44.6625 34.8613C44.7539 34.9626 44.8343 35.0732 44.9025 35.1913C45.0164 35.3697 45.1191 35.5551 45.21 35.7463C45.3806 36.0954 45.526 36.4564 45.645 36.8263C45.8899 37.5578 46.0632 38.3113 46.1625 39.0763C46.5497 42.0389 46.0704 45.0503 44.7825 47.7463C44.5415 48.2417 44.2632 48.7181 43.95 49.1713C43.7811 49.4141 43.5983 49.647 43.4025 49.8688C43.1859 50.0888 42.9527 50.2919 42.705 50.4763C42.1964 50.8271 41.6203 51.0683 41.0135 51.1845C40.4066 51.3007 39.7822 51.2894 39.18 51.1513C38.209 50.9342 37.2845 50.5456 36.45 50.0038C35.6392 49.4883 34.8959 48.8736 34.2375 48.1738C33.5849 47.446 33.0371 46.6306 32.61 45.7513C32.1548 44.9011 31.8263 43.989 31.635 43.0438C31.4059 42.0416 31.4951 40.9929 31.89 40.0438C32.1148 39.5487 32.448 39.1104 32.865 38.7613C33.3319 38.4021 33.9117 38.2213 34.5 38.2513C35.544 38.3544 36.5107 38.8471 37.2075 39.6313C37.8773 40.3092 38.4639 41.0646 38.955 41.8813C40.7025 44.6788 41.685 47.8213 42.6075 50.8363C43.2423 52.8002 43.7434 54.8047 44.1075 56.8363C44.4329 58.8578 44.4808 60.9143 44.25 62.9488C44.1 64.2313 43.905 64.0288 43.71 62.9488L43.2975 60.7513C43.1025 59.8588 42.9 58.8238 42.7125 57.7063C42.3423 55.7105 41.8412 53.7413 41.2125 51.8113C40.62 49.8313 40.035 47.8663 39.315 45.9913C38.6743 44.1269 37.7095 42.3902 36.465 40.8613C36.1714 40.5191 35.8392 40.2121 35.475 39.9463C35.1754 39.732 34.8224 39.6048 34.455 39.5788C34.2975 39.5762 34.1413 39.607 33.9965 39.669C33.8518 39.731 33.7217 39.823 33.615 39.9388C33.3378 40.2212 33.132 40.5658 33.015 40.9438C32.7814 42.0308 32.9132 43.1644 33.39 44.1688C33.8336 45.2765 34.4768 46.2933 35.2875 47.1688C36.1277 48.0285 37.116 48.7297 38.205 49.2388C38.6867 49.493 39.2152 49.646 39.7582 49.6886C40.3012 49.7311 40.8471 49.6623 41.3625 49.4863C41.8857 49.2415 42.3356 48.864 42.6675 48.3913C43.0399 47.8497 43.3613 47.2747 43.6275 46.6738C44.1558 45.4409 44.4995 44.1369 44.6475 42.8038C44.8094 41.4706 44.7715 40.1208 44.535 38.7988C44.406 38.1512 44.2203 37.5163 43.98 36.9013C43.8603 36.6127 43.7173 36.3343 43.5525 36.0688C43.4759 35.9108 43.3529 35.78 43.2 35.6938C43.1561 35.6719 43.1081 35.6596 43.0591 35.6577C43.0102 35.6557 42.9613 35.6643 42.9159 35.6828C42.8705 35.7012 42.8295 35.7291 42.7957 35.7647C42.762 35.8002 42.7361 35.8425 42.72 35.8888C42.6788 35.9767 42.651 36.0702 42.6375 36.1663C42.5923 36.3508 42.5646 36.5391 42.555 36.7288C42.5231 37.5561 42.5885 38.3843 42.75 39.1963C42.9013 40.0153 43.1349 40.8168 43.4475 41.5888C43.6969 42.3273 44.1367 42.987 44.7225 43.5013C45.1663 43.7882 45.7016 43.898 46.2225 43.8088C46.7776 43.689 47.2936 43.431 47.7225 43.0588C48.6562 42.2661 49.3476 41.2264 49.7175 40.0588C49.8767 39.493 49.9126 38.8996 49.8225 38.3188C49.7714 37.7825 49.5477 37.2772 49.185 36.8788C49.1105 36.8092 49.0225 36.7555 48.9265 36.7211C48.8305 36.6866 48.7285 36.6721 48.6267 36.6784C48.5249 36.6848 48.4255 36.7118 48.3345 36.7578C48.2435 36.8039 48.1629 36.868 48.0975 36.9463C47.6911 37.3783 47.3772 37.8887 47.175 38.4463C47.0101 38.8688 46.8846 39.3057 46.8 39.7513C46.6714 40.2451 46.5712 40.746 46.5 41.2513C46.3552 42.2202 46.2701 43.197 46.245 44.1763C46.2006 46.1361 46.3488 48.0955 46.6875 50.0263C46.845 50.8738 47.025 51.6988 47.2425 52.5388C47.625 54.1063 47.9925 55.1113 48.1425 55.8388C48.302 56.3475 48.3581 56.883 48.3075 57.4138C48.2946 57.5953 48.2695 57.7757 48.2325 57.9538C48.1125 58.3663 47.1825 57.2788 46.35 54.9538C45.1065 51.3829 44.5492 47.6092 44.7075 43.8313C44.7559 42.8616 44.856 41.8953 45.0075 40.9363C45.0975 40.4563 45.1575 39.9613 45.27 39.4813L45.4275 38.7313C45.5025 38.4538 45.585 38.2063 45.675 37.9813C45.8681 37.4548 46.1197 36.9517 46.425 36.4813C46.8138 35.8304 47.4232 35.3407 48.1425 35.1013C48.5997 34.9764 49.0854 35.0081 49.5225 35.1913C49.929 35.3431 50.2866 35.6023 50.5575 35.9413C50.9909 36.4579 51.2829 37.0781 51.405 37.7413C51.5872 38.6032 51.5744 39.495 51.3675 40.3513C51.143 41.1537 50.7883 41.9138 50.3175 42.6013C49.8577 43.2806 49.2961 43.8852 48.6525 44.3938C47.9419 44.9681 47.0791 45.3226 46.17 45.4138C45.9206 45.4372 45.6695 45.4372 45.42 45.4138C45.1725 45.3763 44.94 45.3013 44.67 45.2413C44.4 45.1813 44.235 45.0463 44.025 44.9413C43.8001 44.8052 43.5913 44.6442 43.4025 44.4613C42.8376 43.8438 42.397 43.1231 42.105 42.3388C41.5421 40.9316 41.1956 39.4473 41.0775 37.9363L41.16 37.8238Z" fill="#231F20"/>
<path d="M70.8748 39.6379C70.8748 39.7654 70.6798 39.7129 70.4098 39.5554C70.293 39.4702 70.1937 39.3633 70.1173 39.2404C70.1067 39.1457 70.1067 39.0501 70.1173 38.9554C70.2597 38.6978 70.4149 38.4475 70.5823 38.2054C70.6935 38.0245 70.8356 37.8645 71.0023 37.7329C71.3238 37.4587 71.6647 37.2081 72.0223 36.9829C72.1052 36.9302 72.1965 36.8921 72.2923 36.8704C72.6108 36.7846 72.9144 36.6506 73.1923 36.4729C73.2448 36.4729 73.2973 36.4279 73.3273 36.3529C73.6293 36.1284 73.9779 35.9746 74.3473 35.9029C74.652 35.8839 74.9576 35.8839 75.2623 35.9029C75.3073 35.9029 75.3448 35.9029 75.3973 35.9029C75.4271 35.9467 75.4701 35.9798 75.52 35.9974C75.57 36.0149 75.6242 36.016 75.6748 36.0004C75.8017 35.9995 75.9281 36.0172 76.0498 36.0529C76.1211 36.0971 76.1845 36.1528 76.2373 36.2179C76.27 36.3178 76.27 36.4255 76.2373 36.5254C76.1923 36.6004 76.2373 36.6979 76.2373 36.7954C76.241 36.8278 76.241 36.8605 76.2373 36.8929C76.0532 37.0876 75.8525 37.2657 75.6373 37.4254C75.6373 37.4254 75.4273 37.5079 75.2248 37.5829C75.0665 37.6424 74.9134 37.7152 74.7673 37.8004C74.7223 37.8004 74.6623 37.8004 74.6098 37.8004C74.5573 37.8004 74.0023 38.1454 73.9798 38.1604C73.8448 38.2054 73.7473 38.3104 73.5598 38.2579C73.5598 38.2579 73.4998 38.2579 73.4773 38.2579C73.2628 38.3769 73.0397 38.4797 72.8098 38.5654C72.6952 38.6239 72.5871 38.6943 72.4873 38.7754H72.4123C72.385 38.7711 72.3571 38.7711 72.3298 38.7754C72.0614 38.9284 71.81 39.1094 71.5798 39.3154C71.5348 39.3604 71.1823 39.4729 71.1298 39.5404C71.0773 39.6079 70.8748 39.5854 70.8748 39.6379Z" fill="#231F20"/>
<path d="M63.6449 22.9277C63.6449 23.0627 63.4424 23.0027 63.1649 22.8377C63.0416 22.7521 62.937 22.6424 62.8574 22.5152C62.847 22.4155 62.847 22.315 62.8574 22.2152C62.8574 22.1627 63.1799 21.5852 63.2924 21.3752C63.3952 21.1796 63.5295 21.0023 63.6899 20.8502C64.0049 20.5502 64.3349 20.2727 64.6649 20.0027C64.7399 19.9428 64.8268 19.8993 64.9199 19.8752C65.2263 19.7779 65.5061 19.6111 65.7374 19.3877C65.7824 19.3502 65.8274 19.3277 65.8349 19.2527C65.8424 19.1777 66.5174 18.6227 66.6224 18.6002C66.8999 18.5402 67.1549 18.4427 67.4174 18.3602C67.4624 18.3602 67.4774 18.3077 67.5524 18.3602C67.6274 18.4127 67.7699 18.3602 67.8449 18.3602C67.9522 18.3069 68.0655 18.2666 68.1824 18.2402C68.2728 18.2442 68.3617 18.2646 68.4449 18.3002C68.5274 18.3002 68.6624 18.5327 68.6699 18.5627C68.6774 18.5927 68.7824 18.7277 68.8499 18.8027L68.9249 18.8852C68.8739 19.1965 68.7806 19.4993 68.6474 19.7852C68.6474 19.7852 67.8974 20.4902 67.8149 20.5802C67.7324 20.6702 67.7024 20.6327 67.6349 20.6402C67.5674 20.6477 67.0274 21.2027 66.9974 21.2102C66.8549 21.2852 66.7574 21.4277 66.5399 21.3902C66.4949 21.3902 66.4724 21.3902 66.4499 21.4277C66.215 21.587 65.9635 21.7203 65.6999 21.8252C65.5799 21.8927 65.4824 21.9902 65.3699 22.0652C65.345 22.0685 65.3198 22.0685 65.2949 22.0652C65.2627 22.0588 65.2295 22.0588 65.1974 22.0652C64.935 22.2383 64.6844 22.4288 64.4474 22.6352C64.2832 22.7009 64.1229 22.7761 63.9674 22.8602C63.9674 22.8602 63.6524 22.8677 63.6449 22.9277Z" fill="#231F20"/>
<path d="M43.7997 14.4232C43.8822 14.5432 43.7172 14.6482 43.4247 14.7457C43.2863 14.7755 43.1431 14.7755 43.0047 14.7457C42.9211 14.6883 42.8433 14.623 42.7722 14.5507C42.7347 14.5132 42.5097 13.8757 42.3972 13.6732C42.3086 13.4765 42.2431 13.2701 42.2022 13.0582C42.1122 12.6382 41.9847 12.2332 41.9097 11.8207C41.8947 11.7263 41.8947 11.6301 41.9097 11.5357C41.9608 11.2127 41.9272 10.8819 41.8122 10.5757C41.8122 10.5232 41.8122 10.4632 41.7147 10.4257C41.529 10.1096 41.4307 9.74981 41.4297 9.3832C41.4991 9.08202 41.5467 8.77623 41.5722 8.4682C41.5722 8.4232 41.5722 8.3857 41.5722 8.3332C41.5722 8.2807 41.6697 8.1307 41.6772 8.0332C41.6793 7.89861 41.6994 7.76491 41.7372 7.6357C41.7822 7.5607 41.8722 7.4707 41.9247 7.3957C41.9571 7.36967 41.9943 7.35031 42.0342 7.33872C42.0741 7.32714 42.1159 7.32356 42.1572 7.3282C42.2322 7.3732 42.2997 7.3282 42.3672 7.2832H42.4422C42.7528 7.4417 43.0303 7.65807 43.2597 7.9207C43.2597 7.9207 43.3722 8.1757 43.4922 8.4457C43.5733 8.65077 43.666 8.85109 43.7697 9.0457C43.8072 9.1057 43.7697 9.1807 43.7697 9.2482C43.7697 9.3157 44.0622 10.1032 44.0622 10.1407C44.0622 10.3207 44.1597 10.4932 44.0622 10.6957C44.053 10.713 44.0482 10.7323 44.0482 10.752C44.0482 10.7716 44.053 10.7909 44.0622 10.8082C44.1048 11.1188 44.1173 11.4327 44.0997 11.7457C44.0997 11.9107 44.0997 12.0607 44.0997 12.2257C44.1018 12.2557 44.1018 12.2857 44.0997 12.3157C44.0972 12.3507 44.0972 12.3857 44.0997 12.4207C44.0997 12.7957 44.0547 13.1707 44.0997 13.5457C44.0997 13.6357 43.9497 14.0482 43.9722 14.1457C43.9947 14.2432 43.7622 14.3782 43.7997 14.4232Z" fill="#231F20"/>
<path d="M19.5 15.7516C19.3425 15.7516 19.425 15.5116 19.6575 15.1966C19.7794 15.0612 19.921 14.9449 20.0775 14.8516L20.4075 14.8066C20.46 14.8066 21.0075 15.1066 21.2175 15.1666C21.4 15.2356 21.5698 15.3345 21.72 15.4591L22.68 16.1341C22.7569 16.1836 22.8211 16.2504 22.8675 16.3291C23.055 16.5932 23.3157 16.7966 23.6175 16.9141C23.67 16.9141 23.7075 16.9741 23.7825 16.9516C24.126 17.0498 24.4452 17.2183 24.72 17.4466C24.9002 17.6842 25.093 17.912 25.2975 18.1291C25.2975 18.1291 25.38 18.1291 25.3725 18.2491C25.365 18.3691 25.4475 18.4591 25.515 18.5191C25.6172 18.5965 25.7059 18.6903 25.7775 18.7966C25.8101 18.883 25.8279 18.9743 25.83 19.0666C25.83 19.1566 25.6725 19.3666 25.6425 19.3816C25.6125 19.3966 25.53 19.5541 25.4775 19.6516C25.4619 19.6867 25.4418 19.7195 25.4175 19.7491C25.1118 19.8123 24.7984 19.83 24.4875 19.8016L24 19.5841C23.745 19.4791 23.475 19.3741 23.415 19.3591C23.355 19.3441 23.3175 19.2766 23.28 19.2241C23.2425 19.1716 22.4625 18.9016 22.4325 18.8716C22.4025 18.8416 22.11 18.7291 22.0425 18.4966C22.0425 18.4591 21.9975 18.4441 21.9675 18.4291C21.6944 18.2686 21.4425 18.0746 21.2175 17.8516C21.095 17.7501 20.9673 17.655 20.835 17.5666C20.835 17.5666 20.835 17.5141 20.7825 17.4916C20.7715 17.4544 20.7508 17.4207 20.7225 17.3941C20.4225 17.1616 20.1975 16.8466 19.8825 16.6441C19.8 16.5991 19.6425 16.1641 19.56 16.1041C19.4775 16.0441 19.575 15.7516 19.5 15.7516Z" fill="#231F20"/>
</svg>
