<svg width="96" height="96" viewBox="0 0 96 96" fill="none" xmlns="http://www.w3.org/2000/svg">
<path d="M70.8294 10.1255C71.0134 9.86856 71.2908 9.694 71.6021 9.63931C71.9134 9.58462 72.2338 9.65417 72.4944 9.83303C74.7819 11.7455 68.4444 12.9755 70.8294 10.1255Z" stroke="#231F20" stroke-width="1.2" stroke-miterlimit="10"/>
<path d="M12.2396 31.8534C11.9766 32.0288 11.6556 32.0948 11.3447 32.0374C11.0339 31.98 10.7576 31.8037 10.5746 31.5459C9.10463 28.9509 15.4721 30.0009 12.2396 31.8534Z" stroke="#231F20" stroke-width="1.2" stroke-miterlimit="10"/>
<path d="M81.3074 20.8365C81.4914 20.5795 81.7689 20.4049 82.0802 20.3502C82.3915 20.2956 82.7118 20.3651 82.9724 20.544C85.2524 22.4565 78.9224 23.6865 81.3074 20.8365Z" fill="#231F20"/>
<path d="M56.7974 22.38C57.2174 22.485 57.6299 22.605 58.0424 22.7325L58.6499 22.9275H58.7174H58.7624L67.0574 18L75.5624 25.095L77.0624 26.3025C76.0974 28.6525 75.1274 30.995 74.1524 33.33L73.7024 34.395L74.0474 34.9275C74.2499 35.25 74.4449 35.58 74.6399 35.91C74.8349 36.24 75.0149 36.57 75.1949 36.9075L75.4349 37.38L75.5024 37.53L84.7049 39.2025L86.4074 51.9525L84.6974 52.8525L80.9999 54.825L77.6474 56.625L77.6024 56.8875L77.4899 57.4425C77.4149 57.8075 77.3324 58.175 77.2424 58.545C77.1524 58.9125 77.0549 59.295 76.9499 59.64L76.6724 60.5625L76.6199 60.7125L82.1549 67.4625L79.6199 70.8825C78.8799 71.8825 78.1299 72.85 77.3699 73.785C76.3199 75.0975 76.0799 74.64 76.5599 73.23C76.9162 72.2895 77.3424 71.3769 77.8349 70.5C78.1349 69.96 78.4724 69.3825 78.8474 68.79L79.4474 67.875L79.6049 67.65L79.6799 67.5375L74.4974 61.1325L74.8949 60L75.0824 59.3925C75.1949 59.025 75.2999 58.6425 75.3974 58.2825C75.4949 57.9225 75.5849 57.5325 75.6674 57.165L75.7874 56.595L76.0049 55.4475L80.8124 52.92L82.9649 51.75L84.0449 51.1875L84.3149 51.0525H84.3749H84.4349L83.3324 41.9925L83.2499 41.0025V40.68H83.0999H83.0174L82.7699 40.635L81.6449 40.4325L79.3949 40.0275L74.3249 39.105L73.9124 38.25L73.6424 37.74C73.4699 37.425 73.2974 37.11 73.1099 36.8025C72.9224 36.495 72.7424 36.1875 72.5474 35.8875L72.2099 35.3775L71.6774 34.6275L73.6799 29.8125L74.9249 26.8575L66.9074 20.175L61.2824 23.535L58.9724 24.915L58.1699 24.63L57.6524 24.465L56.6174 24.165L55.5749 23.91L55.0424 23.7975L54.2174 23.64L50.6474 17.25C50.3174 16.65 49.9799 16.0575 49.6424 15.4575L39.5324 16.815C39.1499 19.1475 38.7824 21.4575 38.4074 23.7525C38.3024 24.435 38.1899 25.1175 38.0849 25.785L37.3349 26.1525L36.8174 26.4225C36.4874 26.6025 36.1649 26.79 35.8499 26.9775C35.5349 27.165 35.2199 27.3675 34.9124 27.57L34.4474 27.8925L33.7649 28.3725L25.1849 25.755L25.0874 25.89L23.1674 28.5C20.5274 31.98 19.5824 33 18.6299 33.465C18.4297 33.5804 18.2187 33.6759 17.9999 33.75C17.4524 33.855 18.2924 32.25 20.1599 29.6475C20.7974 28.755 21.4499 27.8625 22.1024 26.955L23.0849 25.5975L24.5399 23.655L33.4949 26.415L33.9524 26.1075C34.2824 25.89 34.6199 25.6875 34.9574 25.485C35.2949 25.2825 35.6399 25.08 35.9924 24.8925L36.4799 24.6375C36.9599 21.5925 37.4549 18.5025 37.9799 15.405V15.27L50.6099 13.5L55.3799 21.99L55.8224 22.08L56.8049 22.3125L56.7974 22.38Z" fill="#231F20"/>
<path d="M40.2523 78.1802L39.6898 78.0002H39.6373L32.1373 83.5577L24.8623 77.5577L22.1773 75.3677L24.3823 70.9352L26.1748 67.4102L25.7473 66.7277C25.5223 66.3527 25.2973 65.9777 25.0798 65.6027C24.8623 65.2277 24.6523 64.8527 24.4498 64.4477L24.1498 63.8627L24.0448 63.6377L14.9998 61.7027L14.1748 55.6427C13.9198 53.8202 13.6723 51.9977 13.4248 50.1902L18.7498 47.0552L21.5623 45.3752L21.5998 45.1277L21.7123 44.5577C21.7873 44.1827 21.8698 43.8077 21.9673 43.4252C22.0648 43.0427 22.1623 42.6752 22.2748 42.3077L22.5073 41.5577L21.1198 39.5252C20.5948 38.7752 20.0698 37.9502 19.5673 37.1552C18.8173 35.9777 19.2673 35.8427 20.2723 36.5177C20.9446 36.9861 21.5678 37.5213 22.1323 38.1152C22.4848 38.4677 22.8823 38.8652 23.2198 39.3077C23.7559 39.9266 24.2567 40.5751 24.7198 41.2502L24.4723 42.0002L24.2473 42.6827L24.1048 43.1552C24.0148 43.4702 23.9248 43.7927 23.8498 44.1077C23.7748 44.4227 23.6923 44.7527 23.6248 45.0677L23.5198 45.6002L23.3398 46.6127L18.7498 49.2302L16.7248 50.3927L15.7498 51.0002L15.4948 51.1427C15.4198 51.1877 15.4948 51.1427 15.4498 51.1427C15.6448 52.6427 15.8323 54.1427 16.0273 55.6427L16.3573 58.2977C16.4548 59.0927 16.6198 60.3977 16.5748 60.2252H16.6498H16.6948H16.8148L17.8123 60.4427L19.8073 60.8852L22.2673 61.4177L25.1923 62.0177L25.6573 62.9627L25.9423 63.5102C26.1373 63.8777 26.3473 64.2602 26.5573 64.6052C26.7673 64.9502 26.9848 65.3552 27.2098 65.6852L27.5698 66.2402L28.1848 67.1402L24.8023 73.9577L24.3898 74.7602L32.1898 81.2252L36.6898 77.8802L39.3148 75.9227L40.2973 76.2527L40.9498 76.4627L42.2698 76.8377L43.6048 77.1752L44.2723 77.3327L45.2548 77.5277L46.7548 80.7677L49.0048 85.6952C51.9373 85.3202 57.0223 84.6377 59.9398 84.1952V84.1352L61.2748 75.2702L62.0248 74.8652L62.5423 74.5877C62.8648 74.4077 63.1873 74.2202 63.5023 74.0252L64.4398 73.4252L64.9048 73.1027L65.6548 72.5627H65.7223L68.9098 73.5227C72.4648 74.6402 73.5523 75.1202 74.1598 75.8252C74.3106 75.9685 74.4463 76.1268 74.5648 76.2977C74.7898 76.7627 73.2523 76.5902 70.6198 75.8552L65.9998 74.6552L65.9398 74.7227L65.4673 75.0452C65.1448 75.2627 64.8073 75.4802 64.4698 75.6902C64.1323 75.9002 63.7873 76.0952 63.4423 76.2902L62.9473 76.5602V76.6052L62.8798 77.0927L62.7073 78.2027C62.5948 78.9527 62.4748 79.7027 62.3623 80.4527C62.0773 82.2427 61.7898 84.0427 61.4998 85.8527L54.5023 86.8277L47.9098 87.7502L44.0023 79.2002L43.5148 79.0952L42.4198 78.8327C41.6698 78.6452 40.9798 78.4502 40.2673 78.2327L40.2523 78.1802Z" fill="#231F20"/>
<path d="M21.7493 74.2888L23.8643 69.7888L24.6143 68.1313L24.8243 67.6738L24.8768 67.5613V67.5013L23.5568 64.5763L23.3468 64.5013L22.9193 64.4263L22.0568 64.2688C21.1268 64.0963 20.1818 63.9538 19.2518 63.8263C18.0462 63.7026 16.8491 63.5073 15.6668 63.2413C14.9168 63.0463 16.0493 62.1313 17.4293 62.3338C18.5193 62.4988 19.6068 62.6788 20.6918 62.8738L22.3193 63.1813L23.1368 63.3463L23.5418 63.4288L24.2918 63.5713L24.5993 64.2163L24.7643 64.5838C24.9518 65.0113 25.1618 65.4388 25.3718 65.8663L26.1218 67.3663L25.3343 69.1438L23.2493 73.7488L22.4168 75.5338L22.8293 75.8938C24.0068 76.9138 25.1843 77.9488 26.3768 78.9388C27.3068 79.6888 28.2593 80.4388 29.2043 81.1363L29.8268 81.6163C30.5768 82.2313 30.7718 82.4863 30.7418 82.8538C30.7496 82.9361 30.7496 83.0189 30.7418 83.1013C30.6593 83.3338 30.2318 83.2288 29.6393 82.8163C27.8843 81.5938 26.1518 80.1688 24.4268 78.7213L20.9993 75.8488L21.7493 74.2513V74.2888Z" fill="#231F20"/>
<path d="M12.9075 49.2377L16.77 47.2052L18.1125 46.4552L20.445 45.2477C20.445 45.2477 20.5425 45.2477 20.535 45.1727L20.5725 44.9627C20.6325 44.7302 20.6925 44.4977 20.76 44.2802C20.895 43.8402 21.045 43.4052 21.21 42.9752L21.6825 41.7077L21.2625 41.2502C20.5783 40.4924 19.9445 39.6907 19.365 38.8502C19.02 38.3102 20.28 38.3402 21.015 39.2477L21.825 40.2527L22.86 41.5652C22.5825 42.2477 22.3125 42.9302 22.0425 43.6127C21.8237 44.1592 21.6359 44.7175 21.48 45.2852C21.48 45.4127 21.435 45.5552 21.4125 45.6827C21.39 45.8102 21.4125 45.8402 21.3525 45.8552L21.165 45.9527L20.6175 46.2452L19.77 46.7027L18.075 47.6027L14.325 49.5902L13.47 50.0402L13.59 51.1952C13.7475 52.5002 13.8825 53.8127 14.0625 55.1102C14.205 56.1152 14.4 57.0902 14.5725 58.1102L14.6925 58.7627C14.8125 59.5802 14.7825 59.8502 14.5425 60.0602C14.4825 60.1052 14.43 60.1652 14.3775 60.2027C14.1825 60.3077 13.965 59.9927 13.83 59.4002C13.4175 57.6452 13.155 55.7702 12.9075 53.8877C12.7375 52.4327 12.56 50.9777 12.375 49.5227L12.8775 49.2452L12.9075 49.2377Z" fill="#231F20"/>
<path d="M35.6092 23.8201L35.9542 22.1251C35.9917 21.9226 36.0067 21.7126 36.0517 21.5101C36.2167 20.7601 36.4042 20.0626 36.5767 19.3426C36.6592 19.0276 36.7117 18.6976 36.7642 18.3751C36.7962 17.9506 36.9002 17.5346 37.0717 17.1451C37.2067 16.9126 38.0542 17.4901 37.9492 17.9326C37.7809 18.755 37.563 19.5665 37.2967 20.3626C37.1586 20.855 37.0533 21.3561 36.9817 21.8626C36.8767 22.4251 36.7642 22.9876 36.6592 23.5576L36.4717 24.6001L36.3592 25.3501C35.9877 25.4949 35.629 25.6705 35.2867 25.8751C34.9526 26.0935 34.641 26.3447 34.3567 26.6251L34.1692 26.8051C33.9217 27.0151 33.8017 27.0301 33.5767 26.8651L33.4192 26.7601C33.3811 26.723 33.3508 26.6787 33.3302 26.6298C33.3095 26.5808 33.2988 26.5282 33.2988 26.4751C33.2988 26.4219 33.3095 26.3693 33.3302 26.3204C33.3508 26.2714 33.3811 26.2271 33.4192 26.1901C33.9365 25.5594 34.5837 25.0478 35.3167 24.6901L35.4367 24.6301V24.5476V24.3976L35.5342 23.7751L35.6092 23.8201Z" fill="#231F20"/>
<path d="M62.5049 77.2873V76.9423C62.6474 76.8373 62.7749 76.7698 62.9249 76.6723L63.1349 76.5448L63.2474 76.4698C63.3824 76.3798 63.5324 76.2673 63.6749 76.1548C63.9599 75.9148 64.2374 75.6598 64.5149 75.4048C64.7924 75.1498 64.9199 74.9548 65.1299 74.7373L65.4749 74.3848L65.6999 74.1298L65.9774 73.8223C66.7274 73.9573 66.9749 74.0323 67.3649 74.1298L68.4824 74.4223L69.8999 74.8123C70.5491 74.9407 71.1569 75.2266 71.6699 75.6448C71.8349 75.8023 71.6699 75.9673 71.3549 76.0798C71.0822 76.2226 70.7642 76.2523 70.4699 76.1623C69.4199 75.7198 68.2199 75.4123 67.0274 75.0148C66.8746 74.9644 66.7194 74.9218 66.5624 74.8873H66.4349H66.3524L66.0824 75.2023C65.9324 75.3748 65.7824 75.5473 65.6249 75.7048C65.036 76.3504 64.3797 76.9312 63.6674 77.4373C63.6149 77.4823 63.5174 77.4373 63.5174 77.5198V78.5398C63.5174 79.3498 63.3824 80.1523 63.2699 80.9473C63.1724 81.5698 63.1199 82.1848 62.9624 82.7998C62.9328 82.9393 62.8953 83.077 62.8499 83.2123C62.6849 83.7073 62.5199 83.8348 62.2499 83.8123C62.1849 83.8163 62.1198 83.8163 62.0549 83.8123C61.8524 83.7523 61.7849 83.4973 61.8674 83.1673C62.1044 82.1257 62.2822 81.0715 62.3999 80.0098C62.3999 79.6048 62.4824 79.1998 62.4974 78.7873V78.1648V77.2498L62.5049 77.2873Z" fill="#231F20"/>
<path d="M42.6601 45.7887C41.7835 46.9294 41.1971 48.2661 40.9515 49.6836C40.7059 51.1011 40.8084 52.5571 41.2501 53.9262C41.5865 54.9238 42.0941 55.8553 42.7501 56.6787C43.3187 57.4224 44.0023 58.0705 44.7751 58.5987C45.5473 59.1425 46.4038 59.5555 47.3101 59.8212C49.1512 60.3752 51.1185 60.3464 52.9426 59.7387C54.5742 59.1997 56.0131 58.1961 57.0826 56.8512C58.3891 55.1131 59.1441 53.023 59.2501 50.8512C59.2951 50.1837 59.7601 50.1987 60.2326 50.8512C60.5487 51.3532 60.7485 51.9195 60.8173 52.5087C60.8861 53.0978 60.8221 53.695 60.6301 54.2562C59.8379 56.8072 58.14 58.9803 55.8563 60.3659C53.5727 61.7516 50.8611 62.2541 48.2326 61.7787C46.6649 61.5034 45.1728 60.901 43.8534 60.0107C42.534 59.1203 41.417 57.962 40.5751 56.6112C39.6788 55.111 39.1638 53.414 39.0751 51.6687C39.0025 49.9373 39.3391 48.2132 40.0576 46.6362C40.5215 45.686 41.1118 44.803 41.8126 44.0112C42.5246 43.2279 43.3455 42.551 44.2501 42.0012C45.6187 41.1938 47.1501 40.7014 48.7329 40.56C50.3156 40.4186 51.91 40.6317 53.4001 41.1837C55.7164 41.9903 57.7173 43.5107 59.1151 45.5262L59.5501 46.2087C59.6776 46.4412 59.7976 46.6887 59.9251 46.9587C60.2476 47.6092 60.4339 48.3187 60.4726 49.0437C60.4897 49.2238 60.4692 49.4054 60.4124 49.5771C60.3556 49.7489 60.2637 49.9069 60.1426 50.0412C60.0517 50.1502 59.9485 50.2484 59.8351 50.3337C59.4601 50.5362 59.1826 49.8012 58.7401 48.6387C58.0454 46.8803 56.8708 45.3523 55.3501 44.2287C53.8278 43.0881 51.9999 42.4275 50.1001 42.3312C48.6863 42.2841 47.2812 42.5692 45.9976 43.1637C44.709 43.7782 43.5873 44.694 42.7276 45.8337L42.6601 45.7887Z" fill="#231F20"/>
<path d="M45.7497 50.071C45.8833 49.3756 46.1051 48.7001 46.4097 48.061C46.6722 47.5093 46.9914 46.9865 47.3622 46.501C47.7549 45.9406 48.2216 45.436 48.7497 45.001C49.6885 44.1588 50.8496 43.6043 52.0947 43.4035C52.5591 43.343 53.0302 43.3582 53.4897 43.4485C53.681 43.4896 53.869 43.5447 54.0522 43.6135C54.2322 43.6585 54.3147 43.8685 54.3297 44.1085C54.3272 44.2811 54.2869 44.4511 54.2118 44.6066C54.1366 44.762 54.0284 44.8992 53.8947 45.0085C53.7851 45.1121 53.6582 45.1959 53.5197 45.256C53.1751 45.2992 52.8404 45.4006 52.5297 45.556C52.3122 45.661 52.0947 45.781 51.8697 45.916C51.6308 46.0379 51.4002 46.1757 51.1797 46.3285C50.7838 46.5565 50.4452 46.8721 50.1897 47.251C50.0172 47.5585 49.8372 47.791 49.6422 48.076C49.4435 48.3525 49.3102 48.6704 49.2522 49.006C49.103 49.6306 48.9952 50.2645 48.9297 50.9035C48.8931 51.698 48.9972 52.4927 49.2372 53.251C49.3442 53.4473 49.4619 53.6376 49.5897 53.821C49.6347 53.9163 49.6748 54.014 49.7097 54.1135C49.7527 54.2137 49.8137 54.3052 49.8897 54.3835C50.1451 54.5972 50.4374 54.7624 50.7522 54.871C51.2516 55.094 51.7884 55.2212 52.3347 55.246C52.4922 55.246 52.6422 55.1635 52.7922 55.171C52.9821 55.1822 53.1724 55.1822 53.3622 55.171C53.6054 55.1298 53.8347 55.0293 54.0297 54.8785C54.0297 54.8785 54.0297 54.811 54.0297 54.781C54.0297 54.751 54.1722 54.466 54.2847 54.346C54.4035 54.2144 54.5341 54.0939 54.6747 53.986C55.1048 53.6073 55.4674 53.1585 55.7472 52.6585C56.101 52.1187 56.3048 51.4946 56.3378 50.8501C56.3707 50.2056 56.2316 49.5639 55.9347 48.991C55.8297 48.751 55.6797 48.466 55.5747 48.241C55.537 48.1648 55.4891 48.0941 55.4322 48.031C55.276 47.8937 55.0775 47.8143 54.8697 47.806C54.5298 47.781 54.1891 47.843 53.8797 47.986L53.8122 48.031C53.7447 48.0835 53.5647 48.031 53.6697 48.301C53.6697 48.406 53.6247 48.376 53.5872 48.3835C53.5497 48.391 53.4597 48.3835 53.5872 48.526C53.7147 48.6685 53.5872 48.5935 53.5347 48.5785C53.419 48.5194 53.2892 48.4934 53.1597 48.5035C53.0697 48.5035 53.0097 48.5935 53.1147 48.736C53.2197 48.8785 53.0397 48.796 53.0397 48.841C53.0397 49.066 52.8147 49.141 53.0772 49.366C53.1597 49.4335 52.9647 49.4935 52.9047 49.591C52.8447 49.6885 52.8297 49.6585 52.9047 49.696C53.0847 49.8235 53.0697 49.9435 53.0247 50.1085C52.9797 50.2735 53.1372 50.506 53.2272 50.6635L53.3697 50.8735C53.4237 50.9274 53.4738 50.9851 53.5197 51.046C53.6397 51.166 53.7372 51.3085 53.8047 51.2785C53.8722 51.2485 53.8797 51.2035 53.8947 51.211C53.9097 51.2185 53.9697 51.136 54.0372 51.091C54.1047 51.046 54.1497 51.1435 54.1872 51.091C54.547 50.9551 54.8561 50.7115 55.0722 50.3935C55.0722 50.3935 55.0722 50.356 55.0722 50.3485H55.1472C55.3087 50.3904 55.4755 50.4081 55.6422 50.401H55.7322L55.1397 50.6335L55.3347 50.5435C55.4547 50.4835 55.6122 50.3485 55.6722 50.3335C56.0472 50.056 56.0097 49.921 55.9947 50.0635C55.9871 50.0955 55.9871 50.1289 55.9947 50.161C55.9877 50.2107 55.9877 50.2612 55.9947 50.311C56.018 50.4186 56.0506 50.524 56.0922 50.626C56.1325 50.7134 56.1776 50.7985 56.2272 50.881H56.1822C56.0857 50.8092 55.9828 50.7464 55.8747 50.6935C55.6665 50.587 55.4329 50.5403 55.1997 50.5585C55.1997 50.5585 55.1997 50.5585 55.1322 50.611C55.0073 50.7189 54.8686 50.8097 54.7197 50.881C54.5675 50.9614 54.4 51.009 54.2281 51.0206C54.0563 51.0323 53.884 51.0077 53.7222 50.9485C53.4147 50.821 53.2272 50.6035 53.2422 50.491C53.2775 50.0874 53.3964 49.6956 53.5913 49.3405C53.7863 48.9854 54.0531 48.6748 54.3747 48.4285C54.6557 48.2345 54.9676 48.0899 55.2972 48.001C55.4917 47.9342 55.6929 47.8889 55.8972 47.866C56.1488 47.8469 56.4019 47.8671 56.6472 47.926C57.1409 48.0501 57.5806 48.3318 57.8997 48.7285C58.0387 48.8865 58.1548 49.0632 58.2447 49.2535C58.3535 49.4416 58.4368 49.6433 58.4922 49.8535C58.677 50.6273 58.5869 51.4413 58.2372 52.156C57.9993 52.6728 57.6775 53.1468 57.2847 53.5585C56.8083 54.0689 56.2311 54.475 55.5897 54.751C55.2466 54.8727 54.8924 54.9606 54.5322 55.0135C54.1538 55.0618 53.7707 55.0618 53.3922 55.0135C52.6404 54.8991 51.9346 54.58 51.3522 54.091C50.6439 53.5263 50.0872 52.7943 49.7322 51.961C49.4131 51.1422 49.2651 50.2667 49.2972 49.3885C49.2784 48.6194 49.4135 47.8544 49.6947 47.1385C49.7457 47.0364 49.8087 46.9407 49.8822 46.8535C49.9647 46.741 50.0547 46.6285 50.1297 46.5085L50.4897 45.991C50.5347 45.916 50.5947 45.8635 50.6397 45.7885C50.6847 45.7135 50.6397 45.646 50.7147 45.631C50.9423 45.5422 51.1609 45.4317 51.3672 45.301L51.9372 44.896C52.0272 44.836 52.1397 44.821 52.2222 44.7535C52.6439 44.4038 53.137 44.1507 53.667 44.012C54.1969 43.8734 54.7508 43.8525 55.2897 43.951C55.5058 44.0264 55.7411 44.0264 55.9572 43.951C56.0273 43.9239 56.103 43.9146 56.1775 43.9237C56.2521 43.9329 56.3233 43.9603 56.3847 44.0035C56.684 44.1894 57.0036 44.3404 57.3372 44.4535C57.6805 44.5759 57.9965 44.7645 58.2672 45.0085C58.535 45.2614 58.7856 45.532 59.0172 45.8185L59.1747 46.036L59.2722 46.1935C59.3308 46.303 59.3834 46.4157 59.4297 46.531C59.6172 47.0035 59.9847 47.4235 60.1797 47.926C60.3936 48.5267 60.569 49.1404 60.7047 49.7635C60.8382 50.4804 60.871 51.2124 60.8022 51.9385C60.7244 52.5073 60.5835 53.0657 60.3822 53.6035C59.9318 54.8007 59.2487 55.8968 58.3722 56.8285C57.8803 57.3673 57.3488 57.8687 56.7822 58.3285C56.0452 58.8792 55.2027 59.2723 54.3072 59.4835C53.3662 59.6679 52.3983 59.6679 51.4572 59.4835C49.7597 59.166 48.216 58.2926 47.0697 57.001C46.7411 56.6186 46.4638 56.195 46.2447 55.741C46.0661 55.3548 45.923 54.9531 45.8172 54.541C45.6326 53.8408 45.5368 53.1201 45.5322 52.396C45.5394 51.6162 45.6122 50.8385 45.7497 50.071Z" fill="#231F20"/>
<path d="M52.5 50.3028C52.5 50.3028 52.3125 49.2828 51.915 49.1478C51.797 49.0968 51.6662 49.0831 51.5402 49.1086C51.4141 49.1341 51.2989 49.1975 51.21 49.2903C51.1164 49.3746 51.0311 49.4675 50.955 49.5678C50.895 49.6428 50.8725 49.7103 50.865 49.7103C50.8575 49.7103 50.7375 49.7628 50.565 49.7103C50.2913 49.6964 50.0289 49.5967 49.815 49.4253C49.71 49.3203 49.6275 49.2003 49.6425 49.1178C49.7071 48.7863 49.8455 48.4736 50.0475 48.2028C50.3621 47.8102 50.7925 47.5268 51.2775 47.3928C51.7078 47.3028 52.1521 47.3028 52.5825 47.3928C53.2875 47.4903 53.685 48.0453 54.1275 48.4203C54.5271 48.8409 54.8113 49.3576 54.9525 49.9203C55.194 50.7394 55.1219 51.6191 54.75 52.3878C54.6631 52.6537 54.5394 52.9062 54.3825 53.1378C54.1347 53.4053 53.8492 53.6352 53.535 53.8203C53.1244 54.1267 52.6502 54.3368 52.1475 54.4353C51.6563 54.5135 51.1531 54.4563 50.6919 54.27C50.2307 54.0837 49.829 53.7753 49.53 53.3778C49.3527 53.1936 49.2082 52.9806 49.1025 52.7478C49.0028 52.4785 48.9471 52.1949 48.9375 51.9078C48.8749 51.5209 48.8423 51.1298 48.84 50.7378C48.8308 50.6887 48.8157 50.6408 48.795 50.5953C48.7538 50.3621 48.7538 50.1235 48.795 49.8903C48.8623 49.6663 48.9476 49.4481 49.05 49.2378C49.4527 48.5418 50.0425 47.9728 50.7525 47.5953C51.163 47.3988 51.5928 47.2454 52.035 47.1378C52.305 47.0703 52.6125 46.9953 52.785 46.9278C52.9575 46.8603 52.9725 46.8453 52.9575 46.8903H53.025C53.0775 46.8903 53.1075 46.8903 53.1975 46.6428C53.2385 46.4991 53.2562 46.3497 53.25 46.2003C53.253 46.093 53.2271 45.9868 53.175 45.8928C53.175 45.8928 53.235 45.7728 53.0025 45.8928C52.92 45.9378 52.9575 45.8928 52.965 45.8928C52.9725 45.8928 53.0175 45.8103 52.8675 45.8928C52.8225 45.8928 52.7175 45.9753 52.8675 45.8928C53.01 45.6978 53.1 45.4653 52.8675 45.6228C52.7925 45.6678 52.8675 45.5703 52.8075 45.5703C52.635 45.5703 52.62 45.3678 52.3575 45.5178C52.275 45.5703 52.305 45.3903 52.275 45.3153C52.245 45.2403 52.275 45.2328 52.2225 45.2553C52.0725 45.3528 51.99 45.3078 51.9375 45.1878C51.885 45.0678 51.675 45.0978 51.54 45.0603L51.0825 45.0003C50.9103 44.9321 50.7276 44.894 50.5425 44.8878C50.4825 44.8878 50.4075 44.9478 50.3475 44.9478C50.2875 44.9478 50.0025 44.9928 49.8375 44.9928C49.6725 44.9928 49.6875 44.9103 49.605 44.8953C49.2195 44.8023 48.8288 44.7322 48.435 44.6853C48.285 44.6853 48.135 44.7378 47.985 44.6853C47.8663 44.6354 47.7388 44.6097 47.61 44.6097C47.4812 44.6097 47.3537 44.6354 47.235 44.6853C47.07 44.7678 46.8825 44.5953 46.71 44.5578C46.5375 44.5176 46.3618 44.4925 46.185 44.4828C45.9267 44.0365 45.7776 43.5353 45.75 43.0203C45.6254 42.5582 45.6024 42.0747 45.6825 41.6028C45.87 41.6028 46.89 41.2803 47.9325 41.1603C48.6764 41.0435 49.4309 41.0083 50.1825 41.0553C50.7 41.1753 51.2175 41.3328 51.735 41.4903C52.0875 41.6028 52.485 41.6628 52.8225 41.8128C53.16 41.9628 53.535 42.1953 53.9025 42.3828C54.27 42.5703 54.5325 42.6453 54.855 42.8328C54.9075 42.8328 54.9375 42.9078 54.975 42.9528C55.0163 43.0106 55.0641 43.0634 55.1175 43.1103C55.2 43.1778 55.29 43.2303 55.38 43.3053L55.485 43.3878C55.485 43.3878 55.5825 43.3878 55.59 43.3878C55.6204 43.6717 55.7475 43.9365 55.95 44.1378C55.9875 44.1903 55.995 44.2653 56.0325 44.3178C56.2647 44.5433 56.4401 44.8206 56.5444 45.1269C56.6487 45.4333 56.6789 45.76 56.6325 46.0803C56.6325 46.2078 56.58 46.3128 56.7 46.4328C56.728 46.4621 56.7436 46.5011 56.7436 46.5416C56.7436 46.5821 56.728 46.621 56.7 46.6503C56.4675 46.9578 56.655 47.3028 56.535 47.6028C56.4519 47.9624 56.3073 48.305 56.1075 48.6153C55.8375 48.9303 55.6875 49.3653 55.3575 49.5903C55.011 49.8579 54.6363 50.0868 54.24 50.2728C53.8125 50.4678 53.49 50.5878 53.325 50.6403C53.16 50.6928 52.92 50.7378 52.77 50.7978C52.6367 50.8382 52.5083 50.8936 52.3875 50.9628C52.3425 50.9628 52.335 50.9628 52.3425 51.0078C52.3425 51.0078 52.3425 51.1578 52.395 51.2328C52.4475 51.3078 52.395 51.3228 52.395 51.3078C52.2741 51.3471 52.1601 51.4053 52.0575 51.4803C51.9504 51.5213 51.8568 51.5915 51.7875 51.6828C51.7275 51.6828 51.7875 51.7728 51.7875 51.4203C51.7875 51.3753 51.7875 51.2703 51.7875 51.1953C51.8286 51.2109 51.8739 51.2109 51.915 51.1953C52.0369 51.1606 52.1497 51.0996 52.2456 51.0167C52.3414 50.9338 52.418 50.8309 52.47 50.7153C52.483 50.6639 52.5005 50.6137 52.5225 50.5653C52.5184 50.5204 52.5184 50.4752 52.5225 50.4303C52.5272 50.3866 52.5194 50.3423 52.5 50.3028Z" fill="#231F20"/>
</svg>
