<svg width="96" height="96" viewBox="0 0 96 96" fill="none" xmlns="http://www.w3.org/2000/svg">
<path d="M16.1997 44.2051C16.2054 44.1344 16.2251 44.0655 16.2577 44.0025C16.2903 43.9395 16.3352 43.8837 16.3897 43.8383C16.4442 43.7929 16.5072 43.7588 16.575 43.7381C16.6429 43.7173 16.7142 43.7104 16.7847 43.7176C18.2622 43.8526 16.0497 45.7501 16.1997 44.2051Z" stroke="#231F20" stroke-width="0.5" stroke-miterlimit="10"/>
<path d="M39.7497 43.5003C37.9497 43.5003 36.1497 43.5003 34.3347 43.3278C32.4652 43.2137 30.6204 42.8428 28.8522 42.2253C28.5738 42.125 28.3052 41.9995 28.0497 41.8503C27.7415 41.6702 27.4525 41.4591 27.1872 41.2203C26.9819 40.9534 26.8338 40.647 26.7522 40.3203C26.6922 40.0428 26.6697 39.8703 26.6322 39.6528C26.5722 39.2403 26.5347 38.8428 26.4972 38.4453C26.1297 33.8028 26.0322 29.2503 25.7697 24.7503C25.6647 22.7328 25.5072 20.7078 25.3122 18.7503C25.0572 16.1853 24.7047 13.6428 24.6072 11.0703C24.5697 10.2753 24.8247 10.3203 25.2522 10.9503C25.5361 11.3702 25.7868 11.8115 26.0022 12.2703C26.2736 12.9047 26.4675 13.5695 26.5797 14.2503C27.2988 19.4701 27.6746 24.7314 27.7047 30.0003C27.7047 31.5903 27.8172 33.2103 27.9297 34.8303C28.0422 36.4503 28.1622 38.1003 28.3722 39.6153L28.4247 39.8928C28.4247 39.9378 28.4247 39.9903 28.4922 40.0128C28.5597 40.0353 28.6422 40.1478 28.7847 40.2453C28.9272 40.3428 29.0847 40.4103 29.2347 40.5078C29.3944 40.5982 29.5597 40.6784 29.7297 40.7478C29.8978 40.832 30.0736 40.8998 30.2547 40.9503C30.6258 41.0691 31.004 41.1642 31.3872 41.2353C31.7622 41.3253 32.1372 41.3853 32.5497 41.4453C34.1507 41.6625 35.764 41.7778 37.3797 41.7903C39.5547 41.8278 41.7447 41.7903 43.9272 41.6328C47.2347 41.4378 50.5572 41.1378 53.8347 40.7253C56.3772 40.4028 58.8522 39.9753 61.3347 39.5403L62.9847 39.2628C63.7243 39.1101 64.4813 39.0596 65.2347 39.1128C65.6051 39.1223 65.9648 39.2395 66.2697 39.4503C66.3844 39.5197 66.4901 39.6028 66.5847 39.6978C66.6822 39.8403 66.5247 39.9828 66.1797 40.1328C65.6392 40.353 65.0826 40.5311 64.5147 40.6653C60.0672 41.5503 55.3122 42.2628 50.5122 42.7653C46.9422 43.1403 43.3347 43.3878 39.7122 43.4703L39.7497 43.5003Z" fill="#231F20"/>
<path d="M66.322 27.6749L66.397 24.5249C66.397 24.1424 66.397 23.7749 66.397 23.3774C66.397 22.0274 66.4645 20.6699 66.4495 19.3124C66.4495 18.7124 66.3745 18.1124 66.3445 17.5199C66.2495 16.7614 66.2219 15.9959 66.262 15.2324C66.262 14.9924 66.562 14.9924 66.8695 15.1649C67.0539 15.2628 67.2158 15.398 67.345 15.5621C67.4741 15.7261 67.5676 15.9152 67.6195 16.1174C67.9279 17.6697 68.0313 19.2558 67.927 20.8349C67.8745 21.7874 68.017 22.7624 68.047 23.7299C68.077 24.6974 68.107 25.8599 68.0995 26.9249V28.8899C68.0995 29.8799 68.0995 30.8774 68.0995 31.8899C68.0995 32.6399 68.2495 33.3899 68.302 34.1849C68.302 34.3574 68.302 34.5224 68.302 34.6949C68.302 35.3399 68.092 35.5499 67.6345 35.6249C67.5332 35.6491 67.4305 35.6666 67.327 35.6774C66.982 35.6774 66.712 35.4074 66.577 34.9799C66.3426 33.6229 66.2346 32.247 66.2545 30.8699C66.2545 29.8124 66.2545 28.7549 66.2545 27.7049L66.322 27.6749Z" fill="#231F20"/>
<path d="M50.3246 8.07012C48.3746 8.17512 46.4196 8.29762 44.4596 8.43762C43.7096 8.49012 43.0346 8.59512 42.3146 8.64012C39.7871 8.82012 37.2521 8.94012 34.7021 8.96262C33.5771 8.96262 32.4521 8.96262 31.3121 8.96262C30.5621 8.96262 29.8646 8.96262 29.1371 8.86512C28.4107 8.78708 27.6944 8.63375 26.9996 8.40762C26.5646 8.26512 26.6771 8.10012 27.0821 7.96512C27.7047 7.77291 28.3507 7.66692 29.0021 7.65012C31.8296 7.80012 34.7171 7.65012 37.6346 7.53762C39.3821 7.49262 41.1971 7.23762 42.9896 7.05762C44.9546 6.87012 46.9346 6.69012 48.9146 6.54762C50.1371 6.45762 51.3596 6.39762 52.5821 6.33762C54.4346 6.24762 56.3321 6.24012 58.1546 6.25512C59.5871 6.25512 61.0046 6.25512 62.4446 6.30762C62.7596 6.30762 63.0671 6.34512 63.3896 6.38262C64.5671 6.53262 64.8896 6.75012 65.0771 7.21512C65.1212 7.31876 65.1539 7.4269 65.1746 7.53762C65.1746 7.89012 64.6946 8.08512 63.8696 8.04762C61.4021 7.96512 58.8296 7.86762 56.2121 7.89012C54.2621 7.89012 52.3046 7.98012 50.3396 8.11512L50.3246 8.07012Z" fill="#231F20"/>
<path d="M59.2494 20.0325C57.6294 22.005 56.0919 24.075 54.6369 26.205C54.1044 26.955 53.6469 27.8025 53.1369 28.59L51.6369 30.9525L50.8869 32.1525L49.7094 34.05C49.4724 34.3892 49.1556 34.6648 48.7869 34.8525C48.753 34.8808 48.7128 34.9004 48.6696 34.9095C48.6265 34.9187 48.5818 34.9171 48.5394 34.905C48.4523 34.8784 48.3691 34.8405 48.2919 34.7925C48.1213 34.6935 47.9628 34.5752 47.8194 34.44C47.4571 34.0453 47.1494 33.6039 46.9044 33.1275C46.7619 32.88 46.6194 32.6325 46.4844 32.3775L46.1919 31.83C45.4949 30.5348 44.721 29.2826 43.8744 28.08C43.3344 27.33 42.7719 26.58 42.1794 25.905C41.64 25.2335 41.0146 24.6359 40.3194 24.1275C39.9294 23.9025 39.9969 23.5125 40.6644 23.3775C41.1639 23.3254 41.6687 23.3852 42.1422 23.5526C42.6157 23.7199 43.046 23.9906 43.4019 24.345C44.8496 25.7662 46.1098 27.3667 47.1519 29.1075C47.4144 29.52 47.6694 29.9475 47.9019 30.3675L48.2769 30.9975C48.2769 31.0725 48.2769 31.0575 48.2769 31.065V31.14C48.2981 31.2391 48.3257 31.3368 48.3594 31.4325C48.3594 31.4325 48.4119 31.6125 48.4419 31.575L48.5394 31.5225L48.5994 31.47C48.6505 31.4235 48.6981 31.3734 48.7419 31.32L48.8169 31.2225L49.0194 30.8775C49.3119 30.39 49.5969 29.895 49.8894 29.3775C50.4669 28.395 51.0369 27.3975 51.6594 26.4375C53.1194 24.2125 54.6494 22.04 56.2494 19.92C57.2394 18.6225 58.2594 17.3475 59.3244 16.11C60.9566 14.2202 62.7103 12.4389 64.5744 10.7775C65.9861 9.42614 67.546 8.23862 69.2244 7.23747C69.6059 7.00673 70.0076 6.81093 70.4244 6.65247C72.0219 6.05997 72.6744 6.23997 73.0644 6.83997C73.1674 6.97113 73.2578 7.11176 73.3344 7.25997C73.3787 7.39362 73.3801 7.53777 73.3384 7.67226C73.2967 7.80674 73.214 7.92483 73.1019 8.00997C72.7878 8.2748 72.4365 8.49212 72.0594 8.65497C69.2096 10.1253 66.6222 12.0563 64.4019 14.37C62.5945 16.1746 60.8965 18.0855 59.3169 20.0925L59.2494 20.0325Z" fill="#231F20"/>
<path d="M38.2495 44.325C36.5915 44.3046 34.9362 44.1869 33.292 43.9725C31.6094 43.762 29.9609 43.336 28.387 42.705C28.102 42.5625 27.802 42.45 27.532 42.285L27.1345 42L26.917 41.865C26.8186 41.792 26.7303 41.7063 26.6545 41.61C26.4128 41.3016 26.2436 40.9427 26.1595 40.56C26.0725 40.2541 26.0024 39.9436 25.9495 39.63C25.6608 37.5305 25.478 35.4179 25.402 33.3L25.0945 27C25.0045 25.1475 24.8845 23.25 24.7195 21.45C24.502 19.0875 24.2095 16.74 24.052 14.385C23.9995 13.635 24.1795 13.71 24.502 14.295C24.7167 14.692 24.9047 15.1029 25.0645 15.525C25.2695 16.1268 25.4152 16.7473 25.4995 17.3775C26.1028 22.2129 26.4408 27.0777 26.512 31.95C26.512 33.405 26.6395 34.89 26.7745 36.375C26.8345 37.125 26.917 37.875 27.022 38.625C27.1026 39.3196 27.2483 40.0051 27.457 40.6725C27.4824 40.7347 27.5125 40.7949 27.547 40.8525C27.5634 40.8867 27.5895 40.9154 27.622 40.935L28.087 41.235C28.4095 41.43 28.7545 41.61 29.0995 41.7825C29.4589 41.949 29.8299 42.0893 30.2095 42.2025C30.5888 42.3252 30.9744 42.4279 31.3645 42.51C32.9436 42.8567 34.5494 43.0675 36.1645 43.14C38.1631 43.2442 40.1659 43.2442 42.1645 43.14C45.2095 42.9975 48.2695 42.7275 51.277 42.3375C53.617 42.0375 55.897 41.625 58.207 41.2575L59.707 41.01C61.6195 40.7175 62.287 40.8825 62.707 41.115C62.808 41.1519 62.9059 41.197 62.9995 41.25C63.1645 41.4525 62.437 41.6025 61.0645 41.9175C56.977 42.6675 52.6045 43.3575 48.187 43.8C44.8877 44.1732 41.5698 44.3585 38.2495 44.355V44.325Z" fill="#231F20"/>
<path d="M40.4994 89.1976C38.7069 89.1976 36.8994 89.1976 35.0919 89.0251C33.2201 88.9103 31.3729 88.5393 29.6019 87.9226C29.2509 87.7866 28.9122 87.621 28.5894 87.4276L28.0344 86.9926C27.9184 86.9169 27.8292 86.8067 27.7794 86.6776C27.7015 86.562 27.6409 86.4356 27.5994 86.3026C27.5477 86.1797 27.51 86.0514 27.4869 85.9201C27.4869 85.8301 27.4494 85.7251 27.4344 85.6426L27.3594 85.1326C27.3144 84.7951 27.2769 84.4726 27.2544 84.1426C26.9169 79.5376 26.8194 75.0076 26.5569 70.4476C26.4519 68.4301 26.2944 66.4051 26.0994 64.4476C25.8369 61.8826 25.4844 59.3401 25.3944 56.7676C25.3569 55.9726 25.6044 56.0176 26.0319 56.6476C26.3134 57.0689 26.564 57.5101 26.7819 57.9676C27.0533 58.602 27.2472 59.2668 27.3594 59.9476C28.067 65.1857 28.4328 70.4644 28.4544 75.7501C28.4544 77.3401 28.5669 78.9601 28.6794 80.5801C28.7919 82.2001 28.9044 83.8501 29.1144 85.3651C29.1969 85.8151 29.1144 85.6651 29.4369 85.9276C29.7545 86.1425 30.0908 86.3282 30.4419 86.4826C31.2249 86.7965 32.0435 87.0131 32.8794 87.1276C34.6168 87.394 36.3716 87.5319 38.1294 87.5401C40.3044 87.5776 42.4944 87.5401 44.6769 87.3826C47.9844 87.1876 51.3144 86.8876 54.5844 86.4751C57.1344 86.1526 59.6094 85.7251 62.0844 85.2901L63.7344 85.0126C64.474 84.8598 65.231 84.8094 65.9844 84.8626C66.3565 84.876 66.7175 84.9929 67.0269 85.2001C67.1376 85.2718 67.2407 85.3547 67.3344 85.4476C67.4394 85.5901 67.2819 85.7326 66.9294 85.8826C66.3894 86.104 65.8326 86.282 65.2644 86.4151C60.8244 87.3001 56.0694 88.0126 51.2619 88.5151C47.6919 88.8901 44.0919 89.1451 40.4694 89.2276L40.4994 89.1976Z" fill="#231F20"/>
<path d="M67.0648 73.4178L67.1398 70.2603C67.1398 69.8778 67.1398 69.5103 67.1398 69.1128C67.1398 67.7628 67.2148 66.4053 67.1923 65.0478C67.1923 64.4478 67.1173 63.8553 67.0873 63.2553C66.9933 62.5092 66.9682 61.756 67.0123 61.0053C67.0123 60.7728 67.3123 60.7653 67.6198 60.9378C67.8042 61.0356 67.9661 61.1709 68.0953 61.3349C68.2244 61.4989 68.3179 61.6881 68.3698 61.8903C68.6819 63.4421 68.7853 65.0286 68.6773 66.6078C68.6248 67.5603 68.7673 68.5353 68.8048 69.5028C68.8423 70.4703 68.8573 71.6328 68.8498 72.6978V74.6253C68.8498 75.6153 68.8498 76.6128 68.8498 77.6253C68.8498 78.3753 68.9923 79.1253 69.0523 79.9203C69.0523 80.0928 69.0523 80.2578 69.0523 80.4303C69.0073 81.0753 68.8423 81.2853 68.3848 81.3603C68.2811 81.3851 68.1759 81.4026 68.0698 81.4128C67.7248 81.4128 67.4548 81.1428 67.3198 80.7153C67.0777 79.3592 66.9697 77.9826 66.9973 76.6053C66.9973 75.5478 66.9973 74.4903 66.9973 73.4403L67.0648 73.4178Z" fill="#231F20"/>
<path d="M51.075 53.8055C49.125 53.9105 47.17 54.033 45.21 54.173C44.46 54.233 43.7775 54.3305 43.065 54.3755C40.5375 54.5555 37.995 54.683 35.4525 54.698C34.32 54.698 33.2025 54.698 32.055 54.698C31.305 54.698 30.6075 54.698 29.88 54.608C29.1567 54.5218 28.4434 54.3661 27.75 54.143C27.315 54.0005 27.4275 53.8355 27.84 53.7005C28.4601 53.5089 29.1036 53.4029 29.7525 53.3855C32.58 53.5355 35.4675 53.3855 38.385 53.273C40.14 53.228 41.9475 52.973 43.74 52.793C45.7125 52.6055 47.685 52.4255 49.6725 52.283C50.8875 52.193 52.1175 52.133 53.34 52.073C55.1925 51.9905 57.09 51.983 58.905 51.9905C60.345 51.9905 61.7625 51.9905 63.195 52.043C63.51 52.043 63.825 52.043 64.14 52.118C65.3175 52.268 65.64 52.4855 65.8275 52.9505C65.8705 53.0552 65.9056 53.163 65.9325 53.273C65.9325 53.6255 65.4525 53.8205 64.62 53.783C62.16 53.7005 59.58 53.603 56.9625 53.6255C55.02 53.6255 53.055 53.7155 51.09 53.8505L51.075 53.8055Z" fill="#231F20"/>
<path d="M59.9994 65.7675C58.3794 67.74 56.8419 69.81 55.3869 71.94C54.8619 72.69 54.3969 73.5375 53.8869 74.325L52.4994 76.4175L51.8319 77.475L51.5019 78L50.9994 78.885C50.8418 79.1731 50.6664 79.4512 50.4744 79.7175L50.2044 80.0775C50.1631 80.1355 50.118 80.1906 50.0694 80.2425L49.9344 80.3325L49.6719 80.52L49.4394 80.64C49.1919 80.64 49.0494 80.52 48.8619 80.4075C48.4102 80.0532 48.0437 79.6022 47.7894 79.0875C47.4594 78.5475 47.0919 77.85 46.9419 77.5875C46.2477 76.2908 45.4737 75.0384 44.6244 73.8375C44.0991 73.0844 43.5359 72.3584 42.9369 71.6625C42.3929 70.9927 41.7653 70.3953 41.0694 69.885C40.6794 69.66 40.7469 69.27 41.4144 69.135C41.9139 69.0824 42.4189 69.142 42.8925 69.3094C43.3661 69.4767 43.7963 69.7477 44.1519 70.1025C45.5996 71.5238 46.8598 73.1243 47.9019 74.865C48.1644 75.285 48.4194 75.705 48.6519 76.125L49.0194 76.755C49.0644 76.83 49.0194 76.815 49.0194 76.8225V76.8975C49.0336 76.9975 49.0587 77.0956 49.0944 77.19C49.0944 77.19 49.1544 77.37 49.1844 77.3325L49.2819 77.28C49.3324 77.241 49.3778 77.1956 49.4169 77.145L49.4994 77.055V77.0025L49.5519 76.9125L50.4669 75.36C51.0744 74.3175 51.6819 73.2675 52.3344 72.255C53.7669 70.005 55.2819 67.845 56.8869 65.7375C57.8869 64.4325 58.9144 63.16 59.9694 61.92C61.5874 60.0295 63.3287 58.2481 65.1819 56.5875C66.5963 55.2361 68.1587 54.0486 69.8394 53.0475C70.2194 52.8139 70.6213 52.618 71.0394 52.4625C72.6294 51.87 73.2894 52.05 73.6794 52.65C73.7802 52.7813 73.8681 52.9219 73.9419 53.07C73.9873 53.2036 73.9893 53.3481 73.9476 53.4828C73.9058 53.6176 73.8224 53.7356 73.7094 53.82C73.3982 54.085 73.0494 54.3024 72.6744 54.465C69.8723 55.9144 67.3242 57.809 65.1294 60.075C63.3245 61.8798 61.629 63.7907 60.0519 65.7975L59.9994 65.7675Z" fill="#231F20"/>
<path d="M40.0568 90.0005C36.6818 90.0005 33.2543 89.8505 29.9093 88.748L29.3168 88.5455L28.7393 88.268C28.3429 88.0777 27.9618 87.857 27.5993 87.608C27.3497 87.39 27.161 87.1109 27.0518 86.798C26.9657 86.5707 26.8956 86.3376 26.8418 86.1005C26.4615 83.9468 26.2334 81.7689 26.1593 79.583L25.8218 73.133C25.7243 71.228 25.5893 69.3155 25.4243 67.433C25.1993 65.0105 24.8993 62.603 24.7268 60.188C24.6743 59.438 24.8543 59.498 25.1768 60.098C25.398 60.5043 25.591 60.9253 25.7543 61.358C25.9637 61.9678 26.1169 62.5954 26.2118 63.233C26.8216 68.1938 27.1696 73.1832 27.2543 78.1805C27.3068 79.6805 27.4043 81.1805 27.5543 82.6805C27.6293 83.4305 27.7193 84.1805 27.8393 84.9305C27.9068 85.2905 27.9743 85.6805 28.0643 85.988C28.1048 86.2428 28.205 86.4844 28.3568 86.693L28.4243 86.738C29.7888 87.6068 31.3229 88.1745 32.9243 88.403C34.5659 88.6801 36.225 88.8405 37.8893 88.883C39.9443 88.943 42.0068 88.883 44.0693 88.778C47.1968 88.598 50.3318 88.283 53.4218 87.878C55.8218 87.5555 58.1618 87.128 60.5243 86.7455L62.0843 86.498C64.0418 86.1905 64.7243 86.348 65.1593 86.588C65.2615 86.6358 65.3572 86.6963 65.4443 86.768C65.5343 86.873 65.3768 86.963 65.0393 87.0605C64.7018 87.158 64.1618 87.3005 63.4568 87.4505C59.2643 88.2005 54.7868 88.9505 50.2568 89.423C46.8968 89.7905 43.5068 90.0455 40.0793 90.083L40.0568 90.0005Z" fill="#231F20"/>
<path d="M77.6021 13.2451C77.6077 13.1744 77.6274 13.1056 77.66 13.0426C77.6926 12.9796 77.7375 12.9237 77.792 12.8783C77.8465 12.8329 77.9095 12.7988 77.9774 12.7781C78.0452 12.7574 78.1165 12.7504 78.1871 12.7576C79.6646 12.8926 77.4521 14.7976 77.6021 13.2451Z" stroke="#231F20" stroke-width="0.5" stroke-miterlimit="10"/>
<path d="M78.7049 65.0254C78.7115 64.9544 78.732 64.8854 78.7654 64.8223C78.7988 64.7593 78.8444 64.7035 78.8995 64.6582C78.9546 64.6128 79.0181 64.5789 79.0864 64.5582C79.1547 64.5376 79.2264 64.5307 79.2974 64.5379C80.7749 64.6729 78.5624 66.5779 78.7049 65.0254Z" stroke="#231F20" stroke-width="0.5" stroke-miterlimit="10"/>
<path d="M71.4072 22.0728C71.52 22.1195 71.6103 22.2081 71.6593 22.3199C71.7082 22.4318 71.712 22.5583 71.6697 22.6728C71.2497 23.8428 70.1772 21.6003 71.4072 22.0728Z" fill="#231F20"/>
</svg>
