<svg width="64" height="64" viewBox="0 0 64 64" fill="none" xmlns="http://www.w3.org/2000/svg">
<path d="M26.6673 58.6667C20.7562 58.6667 15.7229 56.6222 11.5673 52.5333C7.41176 48.4444 5.33398 43.4667 5.33398 37.6C5.33398 34.8 5.87843 32.1222 6.96732 29.5667C8.05621 27.0111 9.60065 24.7555 11.6007 22.8L22.934 11.6667C23.9562 10.6444 25.2007 10.1333 26.6673 10.1333C28.134 10.1333 29.3784 10.6444 30.4007 11.6667L41.734 22.8C43.734 24.7555 45.2784 27.0111 46.3673 29.5667C47.4562 32.1222 48.0007 34.8 48.0007 37.6C48.0007 43.4667 45.9229 48.4444 41.7673 52.5333C37.6118 56.6222 32.5784 58.6667 26.6673 58.6667ZM49.334 26.6667C49.334 23.3333 48.1673 20.5 45.834 18.1667C43.5007 15.8333 40.6673 14.6667 37.334 14.6667C40.6673 14.6667 43.5007 13.5 45.834 11.1667C48.1673 8.83332 49.334 5.99999 49.334 2.66666C49.334 5.99999 50.5007 8.83332 52.834 11.1667C55.1673 13.5 58.0007 14.6667 61.334 14.6667C58.0007 14.6667 55.1673 15.8333 52.834 18.1667C50.5007 20.5 49.334 23.3333 49.334 26.6667Z" fill="black"/>
</svg>
