<svg width="96" height="96" viewBox="0 0 96 96" fill="none" xmlns="http://www.w3.org/2000/svg">
<path d="M70.8294 10.1245C71.0134 9.86759 71.2908 9.69302 71.6021 9.63833C71.9134 9.58365 72.2338 9.6532 72.4944 9.83205C74.7819 11.7445 68.4444 12.9745 70.8294 10.1245Z" stroke="#231F20" stroke-width="1.2" stroke-miterlimit="10"/>
<path d="M12.2396 31.8524C11.9766 32.0278 11.6556 32.0938 11.3447 32.0364C11.0339 31.979 10.7576 31.8027 10.5746 31.5449C9.10463 28.9499 15.4721 29.9999 12.2396 31.8524Z" stroke="#231F20" stroke-width="1.2" stroke-miterlimit="10"/>
<path d="M81.3074 20.8345C81.4914 20.5775 81.7689 20.403 82.0802 20.3483C82.3915 20.2936 82.7118 20.3632 82.9724 20.542C85.2524 22.4545 78.9224 23.6845 81.3074 20.8345Z" fill="#231F20"/>
<path d="M56.7974 22.38C57.2174 22.485 57.6299 22.605 58.0424 22.7325L58.6499 22.9275H58.7174H58.7624L67.0574 18L75.5624 25.095L77.0624 26.3025C76.0974 28.6525 75.1274 30.995 74.1524 33.33L73.7024 34.395L74.0474 34.9275C74.2499 35.25 74.4449 35.58 74.6399 35.91C74.8349 36.24 75.0149 36.57 75.1949 36.9075L75.4349 37.38L75.5024 37.53L84.7049 39.2025L86.4074 51.9525L84.6974 52.8525L80.9999 54.825L77.6474 56.625L77.6024 56.8875L77.4899 57.4425C77.4149 57.8075 77.3324 58.175 77.2424 58.545C77.1524 58.9125 77.0549 59.295 76.9499 59.64L76.6724 60.5625L76.6199 60.7125L82.1549 67.4625L79.6199 70.8825C78.8799 71.8825 78.1299 72.85 77.3699 73.785C76.3199 75.0975 76.0799 74.64 76.5599 73.23C76.9162 72.2895 77.3424 71.3769 77.8349 70.5C78.1349 69.96 78.4724 69.3825 78.8474 68.79L79.4474 67.875L79.6049 67.65L79.6799 67.5375L74.4974 61.1325L74.8949 60L75.0824 59.3925C75.1949 59.025 75.2999 58.6425 75.3974 58.2825C75.4949 57.9225 75.5849 57.5325 75.6674 57.165L75.7874 56.595L76.0049 55.4475L80.8124 52.92L82.9649 51.75L84.0449 51.1875L84.3149 51.0525H84.3749H84.4349L83.3324 41.9925L83.2499 41.0025V40.68H83.0999H83.0174L82.7699 40.635L81.6449 40.4325L79.3949 40.0275L74.3249 39.105L73.9124 38.25L73.6424 37.74C73.4699 37.425 73.2974 37.11 73.1099 36.8025C72.9224 36.495 72.7424 36.1875 72.5474 35.8875L72.2099 35.3775L71.6774 34.6275L73.6799 29.8125L74.9249 26.8575L66.9074 20.175L61.2824 23.535L58.9724 24.915L58.1699 24.63L57.6524 24.465L56.6174 24.165L55.5749 23.91L55.0424 23.7975L54.2174 23.64L50.6474 17.25C50.3174 16.65 49.9799 16.0575 49.6424 15.4575L39.5324 16.815C39.1499 19.1475 38.7824 21.4575 38.4074 23.7525C38.3024 24.435 38.1899 25.1175 38.0849 25.785L37.3349 26.1525L36.8174 26.4225C36.4874 26.6025 36.1649 26.79 35.8499 26.9775C35.5349 27.165 35.2199 27.3675 34.9124 27.57L34.4474 27.8925L33.7649 28.3725L25.1849 25.755L25.0874 25.89L23.1674 28.5C20.5274 31.98 19.5824 33 18.6299 33.465C18.4297 33.5804 18.2187 33.6759 17.9999 33.75C17.4524 33.855 18.2924 32.25 20.1599 29.6475C20.7974 28.755 21.4499 27.8625 22.1024 26.955L23.0849 25.5975L24.5399 23.655L33.4949 26.415L33.9524 26.1075C34.2824 25.89 34.6199 25.6875 34.9574 25.485C35.2949 25.2825 35.6399 25.08 35.9924 24.8925L36.4799 24.6375C36.9599 21.5925 37.4549 18.5025 37.9799 15.405V15.27L50.6099 13.5L55.3799 21.99L55.8224 22.08L56.8049 22.3125L56.7974 22.38Z" fill="#231F20"/>
<path d="M40.2523 78.1793L39.6898 77.9993H39.6373L32.1373 83.5568L24.8623 77.5568L22.1773 75.3668L24.3823 70.9343L26.1748 67.4093L25.7473 66.7268C25.5223 66.3518 25.2973 65.9768 25.0798 65.6018C24.8623 65.2268 24.6523 64.8518 24.4498 64.4468L24.1498 63.8618L24.0448 63.6368L14.9998 61.7018L14.1748 55.6418C13.9198 53.8193 13.6723 51.9968 13.4248 50.1893L18.7498 47.0543L21.5623 45.3743L21.5998 45.1268L21.7123 44.5568C21.7873 44.1818 21.8698 43.8068 21.9673 43.4243C22.0648 43.0418 22.1623 42.6743 22.2748 42.3068L22.5073 41.5568L21.1198 39.5243C20.5948 38.7743 20.0698 37.9493 19.5673 37.1543C18.8173 35.9768 19.2673 35.8418 20.2723 36.5168C20.9446 36.9851 21.5678 37.5203 22.1323 38.1143C22.4848 38.4668 22.8823 38.8643 23.2198 39.3068C23.7559 39.9256 24.2567 40.5741 24.7198 41.2493L24.4723 41.9993L24.2473 42.6818L24.1048 43.1543C24.0148 43.4693 23.9248 43.7918 23.8498 44.1068C23.7748 44.4218 23.6923 44.7518 23.6248 45.0668L23.5198 45.5993L23.3398 46.6118L18.7498 49.2293L16.7248 50.3918L15.7498 50.9993L15.4948 51.1418C15.4198 51.1868 15.4948 51.1418 15.4498 51.1418C15.6448 52.6418 15.8323 54.1418 16.0273 55.6418L16.3573 58.2968C16.4548 59.0918 16.6198 60.3968 16.5748 60.2243H16.6498H16.6948H16.8148L17.8123 60.4418L19.8073 60.8843L22.2673 61.4168L25.1923 62.0168L25.6573 62.9618L25.9423 63.5093C26.1373 63.8768 26.3473 64.2593 26.5573 64.6043C26.7673 64.9493 26.9848 65.3543 27.2098 65.6843L27.5698 66.2393L28.1848 67.1393L24.8023 73.9568L24.3898 74.7593L32.1898 81.2243L36.6898 77.8793L39.3148 75.9218L40.2973 76.2518L40.9498 76.4618L42.2698 76.8368L43.6048 77.1743L44.2723 77.3318L45.2548 77.5268L46.7548 80.7668L49.0048 85.6943C51.9373 85.3193 57.0223 84.6368 59.9398 84.1943V84.1343L61.2748 75.2693L62.0248 74.8643L62.5423 74.5868C62.8648 74.4068 63.1873 74.2193 63.5023 74.0243L64.4398 73.4243L64.9048 73.1018L65.6548 72.5618H65.7223L68.9098 73.5218C72.4648 74.6393 73.5523 75.1193 74.1598 75.8243C74.3106 75.9675 74.4463 76.1258 74.5648 76.2968C74.7898 76.7618 73.2523 76.5893 70.6198 75.8543L65.9998 74.6543L65.9398 74.7218L65.4673 75.0443C65.1448 75.2618 64.8073 75.4793 64.4698 75.6893C64.1323 75.8993 63.7873 76.0943 63.4423 76.2893L62.9473 76.5593V76.6043L62.8798 77.0918L62.7073 78.2018C62.5948 78.9518 62.4748 79.7018 62.3623 80.4518C62.0773 82.2418 61.7898 84.0418 61.4998 85.8518L54.5023 86.8268L47.9098 87.7493L44.0023 79.1993L43.5148 79.0943L42.4198 78.8318C41.6698 78.6443 40.9798 78.4493 40.2673 78.2318L40.2523 78.1793Z" fill="#231F20"/>
<path d="M21.7493 74.2868L23.8643 69.7868L24.6143 68.1293L24.8243 67.6718L24.8768 67.5593V67.4993L23.5568 64.5743L23.3468 64.4993L22.9193 64.4243L22.0568 64.2668C21.1268 64.0943 20.1818 63.9518 19.2518 63.8243C18.0462 63.7007 16.8491 63.5053 15.6668 63.2393C14.9168 63.0443 16.0493 62.1293 17.4293 62.3318C18.5193 62.4968 19.6068 62.6768 20.6918 62.8718L22.3193 63.1793L23.1368 63.3443L23.5418 63.4268L24.2918 63.5693L24.5993 64.2143L24.7643 64.5818C24.9518 65.0093 25.1618 65.4368 25.3718 65.8643L26.1218 67.3643L25.3343 69.1418L23.2493 73.7468L22.4168 75.5318L22.8293 75.8918C24.0068 76.9118 25.1843 77.9468 26.3768 78.9368C27.3068 79.6868 28.2593 80.4368 29.2043 81.1343L29.8268 81.6143C30.5768 82.2293 30.7718 82.4843 30.7418 82.8518C30.7496 82.9341 30.7496 83.017 30.7418 83.0993C30.6593 83.3318 30.2318 83.2268 29.6393 82.8143C27.8843 81.5918 26.1518 80.1668 24.4268 78.7193L20.9993 75.8468L21.7493 74.2493V74.2868Z" fill="#231F20"/>
<path d="M12.9075 49.2367L16.77 47.2042L18.1125 46.4542L20.445 45.2467C20.445 45.2467 20.5425 45.2467 20.535 45.1717L20.5725 44.9617C20.6325 44.7292 20.6925 44.4967 20.76 44.2792C20.895 43.8392 21.045 43.4042 21.21 42.9742L21.6825 41.7067L21.2625 41.2492C20.5783 40.4915 19.9445 39.6897 19.365 38.8492C19.02 38.3092 20.28 38.3392 21.015 39.2467L21.825 40.2517L22.86 41.5642C22.5825 42.2467 22.3125 42.9292 22.0425 43.6117C21.8237 44.1582 21.6359 44.7166 21.48 45.2842C21.48 45.4117 21.435 45.5542 21.4125 45.6817C21.39 45.8092 21.4125 45.8392 21.3525 45.8542L21.165 45.9517L20.6175 46.2442L19.77 46.7017L18.075 47.6017L14.325 49.5892L13.47 50.0392L13.59 51.1942C13.7475 52.4992 13.8825 53.8117 14.0625 55.1092C14.205 56.1142 14.4 57.0892 14.5725 58.1092L14.6925 58.7617C14.8125 59.5792 14.7825 59.8492 14.5425 60.0592C14.4825 60.1042 14.43 60.1642 14.3775 60.2017C14.1825 60.3067 13.965 59.9917 13.83 59.3992C13.4175 57.6442 13.155 55.7692 12.9075 53.8867C12.7375 52.4317 12.56 50.9767 12.375 49.5217L12.8775 49.2442L12.9075 49.2367Z" fill="#231F20"/>
<path d="M35.6092 23.8191L35.9542 22.1241C35.9917 21.9216 36.0067 21.7116 36.0517 21.5091C36.2167 20.7591 36.4042 20.0616 36.5767 19.3416C36.6592 19.0266 36.7117 18.6966 36.7642 18.3741C36.7962 17.9496 36.9002 17.5337 37.0717 17.1441C37.2067 16.9116 38.0542 17.4891 37.9492 17.9316C37.7809 18.754 37.563 19.5655 37.2967 20.3616C37.1586 20.854 37.0533 21.3552 36.9817 21.8616C36.8767 22.4241 36.7642 22.9866 36.6592 23.5566L36.4717 24.5991L36.3592 25.3491C35.9877 25.4939 35.629 25.6695 35.2867 25.8741C34.9526 26.0925 34.641 26.3438 34.3567 26.6241L34.1692 26.8041C33.9217 27.0141 33.8017 27.0291 33.5767 26.8641L33.4192 26.7591C33.3811 26.722 33.3508 26.6777 33.3302 26.6288C33.3095 26.5798 33.2988 26.5272 33.2988 26.4741C33.2988 26.4209 33.3095 26.3683 33.3302 26.3194C33.3508 26.2704 33.3811 26.2261 33.4192 26.1891C33.9365 25.5584 34.5837 25.0468 35.3167 24.6891L35.4367 24.6291V24.5466V24.3966L35.5342 23.7741L35.6092 23.8191Z" fill="#231F20"/>
<path d="M62.5049 77.2873V76.9423C62.6474 76.8373 62.7749 76.7698 62.9249 76.6723L63.1349 76.5448L63.2474 76.4698C63.3824 76.3798 63.5324 76.2673 63.6749 76.1548C63.9599 75.9148 64.2374 75.6598 64.5149 75.4048C64.7924 75.1498 64.9199 74.9548 65.1299 74.7373L65.4749 74.3848L65.6999 74.1298L65.9774 73.8223C66.7274 73.9573 66.9749 74.0323 67.3649 74.1298L68.4824 74.4223L69.8999 74.8123C70.5491 74.9407 71.1569 75.2266 71.6699 75.6448C71.8349 75.8023 71.6699 75.9673 71.3549 76.0798C71.0822 76.2226 70.7642 76.2523 70.4699 76.1623C69.4199 75.7198 68.2199 75.4123 67.0274 75.0148C66.8746 74.9644 66.7194 74.9218 66.5624 74.8873H66.4349H66.3524L66.0824 75.2023C65.9324 75.3748 65.7824 75.5473 65.6249 75.7048C65.036 76.3504 64.3797 76.9312 63.6674 77.4373C63.6149 77.4823 63.5174 77.4373 63.5174 77.5198V78.5398C63.5174 79.3498 63.3824 80.1523 63.2699 80.9473C63.1724 81.5698 63.1199 82.1848 62.9624 82.7998C62.9328 82.9393 62.8953 83.077 62.8499 83.2123C62.6849 83.7073 62.5199 83.8348 62.2499 83.8123C62.1849 83.8163 62.1198 83.8163 62.0549 83.8123C61.8524 83.7523 61.7849 83.4973 61.8674 83.1673C62.1044 82.1257 62.2822 81.0715 62.3999 80.0098C62.3999 79.6048 62.4824 79.1998 62.4974 78.7873V78.1648V77.2498L62.5049 77.2873Z" fill="#231F20"/>
<path d="M42.6601 45.7868C41.7835 46.9275 41.1971 48.2641 40.9515 49.6816C40.7059 51.0991 40.8084 52.5551 41.2501 53.9243C41.5865 54.9219 42.0941 55.8533 42.7501 56.6768C43.3187 57.4204 44.0023 58.0686 44.7751 58.5968C45.5473 59.1405 46.4038 59.5536 47.3101 59.8193C49.1512 60.3732 51.1185 60.3444 52.9426 59.7368C54.5742 59.1977 56.0131 58.1942 57.0826 56.8493C58.3891 55.1111 59.1441 53.0211 59.2501 50.8493C59.2951 50.1818 59.7601 50.1968 60.2326 50.8493C60.5487 51.3512 60.7485 51.9175 60.8173 52.5067C60.8861 53.0959 60.8221 53.693 60.6301 54.2543C59.8379 56.8052 58.14 58.9783 55.8563 60.364C53.5727 61.7496 50.8611 62.2521 48.2326 61.7768C46.6649 61.5015 45.1728 60.8991 43.8534 60.0087C42.534 59.1184 41.417 57.9601 40.5751 56.6093C39.6788 55.1091 39.1638 53.4121 39.0751 51.6668C39.0025 49.9354 39.3391 48.2112 40.0576 46.6343C40.5215 45.6841 41.1118 44.8011 41.8126 44.0093C42.5246 43.2259 43.3455 42.549 44.2501 41.9993C45.6187 41.1918 47.1501 40.6995 48.7329 40.5581C50.3156 40.4166 51.91 40.6297 53.4001 41.1818C55.7164 41.9884 57.7173 43.5087 59.1151 45.5243L59.5501 46.2068C59.6776 46.4393 59.7976 46.6868 59.9251 46.9568C60.2476 47.6072 60.4339 48.3167 60.4726 49.0418C60.4897 49.2218 60.4692 49.4035 60.4124 49.5752C60.3556 49.7469 60.2637 49.9049 60.1426 50.0393C60.0517 50.1483 59.9485 50.2464 59.8351 50.3318C59.4601 50.5343 59.1826 49.7993 58.7401 48.6368C58.0454 46.8783 56.8708 45.3503 55.3501 44.2268C53.8278 43.0862 51.9999 42.4255 50.1001 42.3293C48.6863 42.2821 47.2812 42.5673 45.9976 43.1618C44.709 43.7762 43.5873 44.692 42.7276 45.8318L42.6601 45.7868Z" fill="#231F20"/>
<path d="M45.7497 50.07C45.8833 49.3746 46.1051 48.6992 46.4097 48.06C46.6722 47.5083 46.9914 46.9855 47.3622 46.5C47.7549 45.9396 48.2216 45.435 48.7497 45C49.6885 44.1578 50.8496 43.6033 52.0947 43.4025C52.5591 43.342 53.0302 43.3572 53.4897 43.4475C53.681 43.4886 53.869 43.5438 54.0522 43.6125C54.2322 43.6575 54.3147 43.8675 54.3297 44.1075C54.3272 44.2801 54.2869 44.4501 54.2118 44.6056C54.1366 44.7611 54.0284 44.8982 53.8947 45.0075C53.7851 45.1112 53.6582 45.1949 53.5197 45.255C53.1751 45.2982 52.8404 45.3997 52.5297 45.555C52.3122 45.66 52.0947 45.78 51.8697 45.915C51.6308 46.0369 51.4002 46.1747 51.1797 46.3275C50.7838 46.5556 50.4452 46.8711 50.1897 47.25C50.0172 47.5575 49.8372 47.79 49.6422 48.075C49.4435 48.3515 49.3102 48.6695 49.2522 49.005C49.103 49.6297 48.9952 50.2636 48.9297 50.9025C48.8931 51.697 48.9972 52.4917 49.2372 53.25C49.3442 53.4463 49.4619 53.6366 49.5897 53.82C49.6347 53.9154 49.6748 54.013 49.7097 54.1125C49.7527 54.2127 49.8137 54.3042 49.8897 54.3825C50.1451 54.5962 50.4374 54.7614 50.7522 54.87C51.2516 55.093 51.7884 55.2202 52.3347 55.245C52.4922 55.245 52.6422 55.1625 52.7922 55.17C52.9821 55.1812 53.1724 55.1812 53.3622 55.17C53.6054 55.1288 53.8347 55.0284 54.0297 54.8775C54.0297 54.8775 54.0297 54.81 54.0297 54.78C54.0297 54.75 54.1722 54.465 54.2847 54.345C54.4035 54.2134 54.5341 54.0929 54.6747 53.985C55.1048 53.6064 55.4674 53.1575 55.7472 52.6575C56.101 52.1177 56.3048 51.4936 56.3378 50.8491C56.3707 50.2046 56.2316 49.563 55.9347 48.99C55.8297 48.75 55.6797 48.465 55.5747 48.24C55.537 48.1638 55.4891 48.0931 55.4322 48.03C55.276 47.8928 55.0775 47.8133 54.8697 47.805C54.5298 47.7801 54.1891 47.842 53.8797 47.985L53.8122 48.03C53.7447 48.0825 53.5647 48.03 53.6697 48.3C53.6697 48.405 53.6247 48.375 53.5872 48.3825C53.5497 48.39 53.4597 48.3825 53.5872 48.525C53.7147 48.6675 53.5872 48.5925 53.5347 48.5775C53.419 48.5184 53.2892 48.4924 53.1597 48.5025C53.0697 48.5025 53.0097 48.5925 53.1147 48.735C53.2197 48.8775 53.0397 48.795 53.0397 48.84C53.0397 49.065 52.8147 49.14 53.0772 49.365C53.1597 49.4325 52.9647 49.4925 52.9047 49.59C52.8447 49.6875 52.8297 49.6575 52.9047 49.695C53.0847 49.8225 53.0697 49.9425 53.0247 50.1075C52.9797 50.2725 53.1372 50.505 53.2272 50.6625L53.3697 50.8725C53.4237 50.9264 53.4738 50.9841 53.5197 51.045C53.6397 51.165 53.7372 51.3075 53.8047 51.2775C53.8722 51.2475 53.8797 51.2025 53.8947 51.21C53.9097 51.2175 53.9697 51.135 54.0372 51.09C54.1047 51.045 54.1497 51.1425 54.1872 51.09C54.547 50.9541 54.8561 50.7106 55.0722 50.3925C55.0722 50.3925 55.0722 50.355 55.0722 50.3475H55.1472C55.3087 50.3895 55.4755 50.4072 55.6422 50.4H55.7322L55.1397 50.6325L55.3347 50.5425C55.4547 50.4825 55.6122 50.3475 55.6722 50.3325C56.0472 50.055 56.0097 49.92 55.9947 50.0625C55.9871 50.0945 55.9871 50.1279 55.9947 50.16C55.9877 50.2097 55.9877 50.2602 55.9947 50.31C56.018 50.4176 56.0506 50.523 56.0922 50.625C56.1325 50.7124 56.1776 50.7975 56.2272 50.88H56.1822C56.0857 50.8082 55.9828 50.7454 55.8747 50.6925C55.6665 50.5861 55.4329 50.5394 55.1997 50.5575C55.1997 50.5575 55.1997 50.5575 55.1322 50.61C55.0073 50.7179 54.8686 50.8087 54.7197 50.88C54.5675 50.9604 54.4 51.008 54.2281 51.0196C54.0563 51.0313 53.884 51.0067 53.7222 50.9475C53.4147 50.82 53.2272 50.6025 53.2422 50.49C53.2775 50.0864 53.3964 49.6946 53.5913 49.3395C53.7863 48.9844 54.0531 48.6738 54.3747 48.4275C54.6557 48.2335 54.9676 48.089 55.2972 48C55.4917 47.9332 55.6929 47.888 55.8972 47.865C56.1488 47.8459 56.4019 47.8662 56.6472 47.925C57.1409 48.0491 57.5806 48.3309 57.8997 48.7275C58.0387 48.8855 58.1548 49.0622 58.2447 49.2525C58.3535 49.4406 58.4368 49.6424 58.4922 49.8525C58.677 50.6263 58.5869 51.4403 58.2372 52.155C57.9993 52.6719 57.6775 53.1458 57.2847 53.5575C56.8083 54.0679 56.2311 54.474 55.5897 54.75C55.2466 54.8717 54.8924 54.9596 54.5322 55.0125C54.1538 55.0608 53.7707 55.0608 53.3922 55.0125C52.6404 54.8982 51.9346 54.579 51.3522 54.09C50.6439 53.5254 50.0872 52.7934 49.7322 51.96C49.4131 51.1412 49.2651 50.2657 49.2972 49.3875C49.2784 48.6185 49.4135 47.8535 49.6947 47.1375C49.7457 47.0354 49.8087 46.9397 49.8822 46.8525C49.9647 46.74 50.0547 46.6275 50.1297 46.5075L50.4897 45.99C50.5347 45.915 50.5947 45.8625 50.6397 45.7875C50.6847 45.7125 50.6397 45.645 50.7147 45.63C50.9423 45.5412 51.1609 45.4307 51.3672 45.3L51.9372 44.895C52.0272 44.835 52.1397 44.82 52.2222 44.7525C52.6439 44.4028 53.137 44.1497 53.667 44.0111C54.1969 43.8724 54.7508 43.8516 55.2897 43.95C55.5058 44.0254 55.7411 44.0254 55.9572 43.95C56.0273 43.923 56.103 43.9136 56.1775 43.9228C56.2521 43.9319 56.3233 43.9593 56.3847 44.0025C56.684 44.1884 57.0036 44.3394 57.3372 44.4525C57.6805 44.575 57.9965 44.7635 58.2672 45.0075C58.535 45.2604 58.7856 45.531 59.0172 45.8175L59.1747 46.035L59.2722 46.1925C59.3308 46.302 59.3834 46.4147 59.4297 46.53C59.6172 47.0025 59.9847 47.4225 60.1797 47.925C60.3936 48.5257 60.569 49.1394 60.7047 49.7625C60.8382 50.4794 60.871 51.2115 60.8022 51.9375C60.7244 52.5063 60.5835 53.0648 60.3822 53.6025C59.9318 54.7997 59.2487 55.8958 58.3722 56.8275C57.8803 57.3664 57.3488 57.8678 56.7822 58.3275C56.0452 58.8782 55.2027 59.2714 54.3072 59.4825C53.3662 59.6669 52.3983 59.6669 51.4572 59.4825C49.7597 59.165 48.216 58.2916 47.0697 57C46.7411 56.6176 46.4638 56.1941 46.2447 55.74C46.0661 55.3538 45.923 54.9521 45.8172 54.54C45.6326 53.8398 45.5368 53.1191 45.5322 52.395C45.5394 51.6153 45.6122 50.8375 45.7497 50.07Z" fill="#231F20"/>
<path d="M52.5 50.3019C52.5 50.3019 52.3125 49.2819 51.915 49.1469C51.797 49.0958 51.6662 49.0821 51.5402 49.1076C51.4141 49.1331 51.2989 49.1965 51.21 49.2894C51.1164 49.3736 51.0311 49.4665 50.955 49.5669C50.895 49.6419 50.8725 49.7094 50.865 49.7094C50.8575 49.7094 50.7375 49.7619 50.565 49.7094C50.2913 49.6955 50.0289 49.5958 49.815 49.4244C49.71 49.3194 49.6275 49.1994 49.6425 49.1169C49.7071 48.7853 49.8455 48.4726 50.0475 48.2019C50.3621 47.8092 50.7925 47.5258 51.2775 47.3919C51.7078 47.3019 52.1521 47.3019 52.5825 47.3919C53.2875 47.4894 53.685 48.0444 54.1275 48.4194C54.5271 48.8399 54.8113 49.3566 54.9525 49.9194C55.194 50.7384 55.1219 51.6181 54.75 52.3869C54.6631 52.6528 54.5394 52.9052 54.3825 53.1369C54.1347 53.4043 53.8492 53.6343 53.535 53.8194C53.1244 54.1257 52.6502 54.3359 52.1475 54.4344C51.6563 54.5125 51.1531 54.4554 50.6919 54.269C50.2307 54.0827 49.829 53.7743 49.53 53.3769C49.3527 53.1927 49.2082 52.9796 49.1025 52.7469C49.0028 52.4775 48.9471 52.1939 48.9375 51.9069C48.8749 51.5199 48.8423 51.1288 48.84 50.7369C48.8308 50.6877 48.8157 50.6399 48.795 50.5944C48.7538 50.3612 48.7538 50.1225 48.795 49.8894C48.8623 49.6654 48.9476 49.4471 49.05 49.2369C49.4527 48.5409 50.0425 47.9718 50.7525 47.5944C51.163 47.3978 51.5928 47.2445 52.035 47.1369C52.305 47.0694 52.6125 46.9944 52.785 46.9269C52.9575 46.8594 52.9725 46.8444 52.9575 46.8894H53.025C53.0775 46.8894 53.1075 46.8894 53.1975 46.6419C53.2385 46.4981 53.2562 46.3487 53.25 46.1994C53.253 46.092 53.2271 45.9858 53.175 45.8919C53.175 45.8919 53.235 45.7719 53.0025 45.8919C52.92 45.9369 52.9575 45.8919 52.965 45.8919C52.9725 45.8919 53.0175 45.8094 52.8675 45.8919C52.8225 45.8919 52.7175 45.9744 52.8675 45.8919C53.01 45.6969 53.1 45.4644 52.8675 45.6219C52.7925 45.6669 52.8675 45.5694 52.8075 45.5694C52.635 45.5694 52.62 45.3669 52.3575 45.5169C52.275 45.5694 52.305 45.3894 52.275 45.3144C52.245 45.2394 52.275 45.2319 52.2225 45.2544C52.0725 45.3519 51.99 45.3069 51.9375 45.1869C51.885 45.0669 51.675 45.0969 51.54 45.0594L51.0825 44.9994C50.9103 44.9311 50.7276 44.8931 50.5425 44.8869C50.4825 44.8869 50.4075 44.9469 50.3475 44.9469C50.2875 44.9469 50.0025 44.9919 49.8375 44.9919C49.6725 44.9919 49.6875 44.9094 49.605 44.8944C49.2195 44.8013 48.8288 44.7312 48.435 44.6844C48.285 44.6844 48.135 44.7369 47.985 44.6844C47.8663 44.6344 47.7388 44.6087 47.61 44.6087C47.4812 44.6087 47.3537 44.6344 47.235 44.6844C47.07 44.7669 46.8825 44.5944 46.71 44.5569C46.5375 44.5166 46.3618 44.4915 46.185 44.4819C45.9267 44.0355 45.7776 43.5343 45.75 43.0194C45.6254 42.5573 45.6024 42.0737 45.6825 41.6019C45.87 41.6019 46.89 41.2794 47.9325 41.1594C48.6764 41.0425 49.4309 41.0073 50.1825 41.0544C50.7 41.1744 51.2175 41.3319 51.735 41.4894C52.0875 41.6019 52.485 41.6619 52.8225 41.8119C53.16 41.9619 53.535 42.1944 53.9025 42.3819C54.27 42.5694 54.5325 42.6444 54.855 42.8319C54.9075 42.8319 54.9375 42.9069 54.975 42.9519C55.0163 43.0096 55.0641 43.0625 55.1175 43.1094C55.2 43.1769 55.29 43.2294 55.38 43.3044L55.485 43.3869C55.485 43.3869 55.5825 43.3869 55.59 43.3869C55.6204 43.6707 55.7475 43.9355 55.95 44.1369C55.9875 44.1894 55.995 44.2644 56.0325 44.3169C56.2647 44.5423 56.4401 44.8196 56.5444 45.126C56.6487 45.4323 56.6789 45.7591 56.6325 46.0794C56.6325 46.2069 56.58 46.3119 56.7 46.4319C56.728 46.4612 56.7436 46.5001 56.7436 46.5406C56.7436 46.5811 56.728 46.6201 56.7 46.6494C56.4675 46.9569 56.655 47.3019 56.535 47.6019C56.4519 47.9615 56.3073 48.304 56.1075 48.6144C55.8375 48.9294 55.6875 49.3644 55.3575 49.5894C55.011 49.8569 54.6363 50.0858 54.24 50.2719C53.8125 50.4669 53.49 50.5869 53.325 50.6394C53.16 50.6919 52.92 50.7369 52.77 50.7969C52.6367 50.8372 52.5083 50.8926 52.3875 50.9619C52.3425 50.9619 52.335 50.9619 52.3425 51.0069C52.3425 51.0069 52.3425 51.1569 52.395 51.2319C52.4475 51.3069 52.395 51.3219 52.395 51.3069C52.2741 51.3461 52.1601 51.4043 52.0575 51.4794C51.9504 51.5204 51.8568 51.5905 51.7875 51.6819C51.7275 51.6819 51.7875 51.7719 51.7875 51.4194C51.7875 51.3744 51.7875 51.2694 51.7875 51.1944C51.8286 51.2099 51.8739 51.2099 51.915 51.1944C52.0369 51.1596 52.1497 51.0986 52.2456 51.0157C52.3414 50.9328 52.418 50.83 52.47 50.7144C52.483 50.6629 52.5005 50.6127 52.5225 50.5644C52.5184 50.5194 52.5184 50.4743 52.5225 50.4294C52.5272 50.3856 52.5194 50.3414 52.5 50.3019Z" fill="#231F20"/>
</svg>
