<svg width="96" height="96" viewBox="0 0 96 96" fill="none" xmlns="http://www.w3.org/2000/svg">
<path d="M65.7222 18.6821C66.8922 19.2446 68.0697 19.9196 69.0147 20.9996C69.3597 21.3671 69.6822 21.8771 69.8622 22.3271C70.4472 23.9321 70.5897 25.5446 70.6722 27.1196C70.7172 27.8246 70.7172 28.5221 70.7247 29.2196C70.7247 30.1121 70.7247 31.0046 70.5372 31.8821C70.4847 32.1521 70.4097 32.1146 70.2972 31.8821C70.1997 31.6496 69.9597 31.2146 69.9147 30.7121C69.8247 29.8196 69.7122 28.9421 69.5922 28.0646C69.5022 27.1946 69.4347 26.3171 69.3297 25.4546C69.2022 24.4346 68.8347 23.3471 68.3472 22.5521C67.8372 21.7196 66.8547 21.0746 65.8122 20.6096C65.1597 20.3246 64.4772 20.0771 63.7797 19.8596C62.7297 19.5296 61.6347 19.2521 60.5322 19.1096C59.6772 18.9896 58.8222 19.0121 57.9747 18.9446C57.7872 18.9221 57.6072 18.9146 57.4197 18.8921C56.7222 18.8021 56.5122 18.6521 56.3697 18.3221C56.3397 18.2471 56.2947 18.1796 56.2722 18.1121C56.2122 17.8946 56.5122 17.6621 57.0522 17.5346C58.6572 17.1221 60.3672 17.1896 62.0397 17.5346C63.2772 17.7896 64.5447 18.0821 65.7447 18.6371L65.7297 18.6821H65.7222Z" fill="#231F20"/>
<path d="M14.8125 59.8501C14.9025 60.1576 15.0225 60.4351 15.1425 60.6976C15.2025 60.8251 15.2625 60.9526 15.33 61.0576C15.39 61.1551 15.465 61.2676 15.5775 61.3726C15.72 61.5301 15.9075 61.6426 16.0875 61.7776C16.395 62.0251 16.755 62.2426 17.1375 62.4226C17.52 62.6176 17.925 62.7826 18.3525 62.9176C18.7275 63.0376 19.1175 63.1051 19.5075 63.1651C20.01 63.2476 20.5125 63.3676 21.0075 63.5476C21.165 63.6076 21.1275 63.6901 20.9775 63.7951C20.8275 63.8926 20.565 64.0576 20.2575 64.1026C19.9875 64.1326 19.7175 64.1776 19.44 64.1851C19.17 64.1701 18.9 64.1401 18.63 64.1101C18.09 64.0351 17.5425 63.9076 17.0175 63.6901C16.395 63.4276 15.705 63.2101 15.09 62.7901C14.7525 62.5576 14.4525 62.3026 14.1675 61.9426C13.9125 61.5976 13.7175 61.2451 13.5825 60.8851C13.4025 60.4426 13.2675 60.0001 13.1475 59.5651C12.9675 58.8976 12.855 58.2226 12.7125 57.5626C12.6075 57.0526 12.405 56.5576 12.33 56.0401C12.315 55.9276 12.2775 55.8151 12.2775 55.6951C12.255 55.2601 12.3525 55.1101 12.69 55.0126C12.765 54.9901 12.84 54.9601 12.915 54.9451C13.17 54.9001 13.395 55.0576 13.5225 55.3426C13.9425 56.1751 14.1075 57.0601 14.31 57.9376C14.4675 58.5901 14.6175 59.2426 14.8425 59.8351L14.805 59.8501H14.8125Z" fill="#231F20"/>
<path d="M67.3574 49.8518C67.7024 50.1368 68.0549 50.4218 68.3549 50.7443C68.6774 51.0518 68.9699 51.3743 69.2549 51.7043C69.4724 51.9368 69.7049 52.1543 69.8924 52.4093C70.5674 53.2943 71.1224 54.2543 71.6249 55.2143C71.8649 55.6343 72.0749 56.0693 72.3149 56.4818C72.4724 56.7443 72.5849 57.0368 72.6899 57.3293C72.8174 57.6143 72.7724 57.9668 72.7949 58.2818C72.7949 58.4843 72.6749 58.5068 72.4199 58.4393C72.2924 58.4093 72.1274 58.3568 71.9399 58.2893C71.8499 58.2593 71.7524 58.2218 71.6624 58.1843C71.6099 58.1618 71.5799 58.1393 71.5199 58.1243C71.4899 58.0943 71.4599 58.0643 71.4299 58.0343C70.9874 57.5993 70.7174 57.0968 70.4324 56.5943C70.1324 56.0993 69.9224 55.5518 69.6749 55.0118C69.3899 54.3518 68.8649 53.8268 68.4149 53.2718C68.1674 52.9643 67.8974 52.6793 67.6349 52.3793C67.3499 52.1093 67.0874 51.8168 66.7799 51.5693L66.2249 51.1118C66.0299 50.9693 65.8274 50.8418 65.6249 50.7143C65.3249 50.4968 64.9874 50.3693 64.6724 50.1968C64.3424 50.0468 63.9974 49.9493 63.6524 49.8593C63.3749 49.8218 63.1049 49.8143 62.8349 49.8143C62.5649 49.8443 62.3024 49.8818 62.0399 49.8893C61.9274 49.8893 61.8149 49.9268 61.7024 49.9418C61.5974 49.9568 61.5074 49.9643 61.4324 49.9568C61.3574 49.9418 61.2824 49.8893 61.2224 49.8443C61.1024 49.7543 61.0199 49.6418 60.9374 49.4918C60.8999 49.4243 60.8549 49.3568 60.8249 49.2968C60.7349 49.0943 60.8699 48.8318 61.2299 48.5393C61.5074 48.4118 61.7999 48.2768 62.1074 48.2318C62.4149 48.1718 62.7374 48.0968 63.0599 48.1193C63.3749 48.1418 63.6974 48.1793 64.0199 48.2243C64.3349 48.2918 64.6349 48.3968 64.9499 48.4868C65.4074 48.6293 65.8199 48.8618 66.2399 49.0718C66.6224 49.3268 67.0424 49.5518 67.3949 49.8368L67.3724 49.8743L67.3574 49.8518Z" fill="#231F20"/>
<path d="M7.45549 60.817C7.62049 61.7245 7.84549 62.6095 8.04799 63.4795C8.15299 63.922 8.30299 64.327 8.43049 64.762C8.60299 65.1445 8.73049 65.587 8.94799 65.9095C9.02299 66.0295 9.09049 66.172 9.17299 66.277L9.44299 66.5695C9.61549 66.772 9.89299 66.922 10.0955 67.1245C10.958 67.7545 12.053 68.197 13.148 68.602C14.2505 68.9995 15.4055 69.292 16.5755 69.547C17.6105 69.787 18.668 69.9295 19.718 70.027C21.068 70.162 22.4255 70.312 23.7905 70.342C24.218 70.357 24.173 70.4095 23.8205 70.5445C23.468 70.6795 22.808 70.9345 21.998 71.0545C21.2855 71.152 20.5655 71.2345 19.8455 71.257C19.1255 71.257 18.413 71.227 17.693 71.167C16.9805 71.107 16.2605 71.032 15.548 70.8895C14.843 70.7245 14.138 70.537 13.448 70.3045C11.798 69.7495 10.013 69.217 8.49799 67.912C7.63549 67.1095 7.25299 66.1045 6.90049 65.182C6.59299 64.237 6.32299 63.292 6.17299 62.332C5.95549 61.1545 5.82799 59.977 5.70049 58.807C5.52049 57.0295 5.46049 55.237 5.40799 53.4745C5.36299 52.102 5.33299 50.752 5.40799 49.3945C5.43049 49.0945 5.43049 48.802 5.46799 48.502C5.58049 47.3845 5.71549 47.032 5.88799 46.822C5.92549 46.7695 5.97049 46.7095 6.00049 46.6795C6.12049 46.597 6.12799 47.0545 6.11299 47.857C6.08299 50.2495 6.33799 52.7695 6.63049 55.2745C6.87799 57.1345 7.11049 58.9945 7.49299 60.8095H7.45549V60.817Z" fill="#231F20"/>
<path d="M7.61959 16.718C8.05459 16.0205 8.83459 15.4355 9.50959 15.128C10.1996 14.8205 10.8896 14.5805 11.5871 14.393C12.0896 14.2505 12.5846 14.093 13.0946 14.003C14.8871 13.6805 16.6871 13.5305 18.4796 13.433C19.2746 13.3955 20.0696 13.3355 20.8646 13.3655C21.8771 13.3655 22.9046 13.4555 23.8946 13.6955C24.2021 13.763 24.1571 13.7705 23.8871 13.793C23.6171 13.793 23.1221 13.868 22.5521 13.928C21.5396 14.033 20.5346 14.1305 19.5221 14.2355C18.5096 14.3255 17.5046 14.4305 16.4846 14.543C15.2696 14.6705 14.0321 15.0005 12.8396 15.323C11.5571 15.668 10.1621 16.0805 9.26959 16.838C8.74459 17.3105 8.38459 18.0755 8.10709 18.8405C7.68709 20.018 7.38709 21.278 7.19959 22.538C7.04959 23.5205 7.05709 24.503 6.98959 25.478C6.97459 25.6955 6.97459 25.9055 6.95959 26.123C6.81709 26.9255 6.67459 27.173 6.38209 27.323C6.31459 27.3605 6.24709 27.4055 6.18709 27.4205C5.97709 27.4805 5.81959 27.1355 5.72209 26.528C5.46709 24.7205 5.69959 22.823 6.05209 20.918C6.20209 20.213 6.35209 19.5005 6.61459 18.7955C6.86209 18.0905 7.14709 17.3855 7.59709 16.6955L7.62709 16.7105L7.61959 16.718Z" fill="#231F20"/>
<path d="M10.8304 42.2482C10.9579 42.1132 11.0179 41.9482 11.0704 41.7682C11.0704 41.7007 11.0479 41.6407 11.0629 41.5732C11.0704 41.3407 11.0629 41.0482 10.9054 40.7857C10.8304 40.6807 10.7404 40.5832 10.6204 40.5157C10.4704 40.4257 10.3204 40.3582 10.1929 40.1782C10.1554 40.1182 10.2154 39.9757 10.3279 39.8332C10.4404 39.6907 10.6204 39.5407 10.7704 39.5557C11.2654 39.6382 11.7304 39.9982 11.9479 40.5007C12.0604 40.8007 12.2629 41.0782 12.3004 41.4157C12.3604 41.7757 12.3004 42.1357 12.2029 42.4582C12.1354 42.6607 12.0454 42.8482 11.9404 43.0282C11.7829 43.2982 11.5504 43.5082 11.3479 43.7257C11.1829 43.8907 11.0554 44.0932 10.8604 44.2582C10.8229 44.2957 10.7854 44.3407 10.7329 44.3632C10.5529 44.4532 10.4554 44.3932 10.3054 44.0932L10.2079 43.8907C10.1104 43.6582 10.0954 43.4332 10.1404 43.3132C10.2754 42.9757 10.4029 42.8107 10.5229 42.6232C10.6054 42.4807 10.7104 42.3682 10.8004 42.2332H10.8304V42.2482Z" fill="#231F20"/>
<path d="M4.41765 30.7059C4.52265 28.1634 4.68015 25.6209 4.93515 23.0709C5.08515 21.7884 5.23515 20.5134 5.48265 19.2159C5.59515 18.5709 5.75265 17.9184 5.91765 17.2584C6.00765 16.9284 6.12766 16.5909 6.23266 16.2609C6.27766 16.0959 6.34515 15.9234 6.42765 15.7509L6.69015 15.1584C6.96015 14.6784 7.36515 14.2359 7.88265 13.9734C8.28015 13.7559 8.63265 13.6209 8.97765 13.5009C9.66015 13.2684 10.3127 13.1109 10.9652 12.9684C12.2552 12.6909 13.5302 12.5034 14.8052 12.3309C17.3477 12.0009 19.8752 11.7834 22.4102 11.6034C26.1002 11.3484 29.7902 11.1159 33.4727 11.0184C39.9752 10.8609 46.4702 10.8834 52.9727 11.1234C56.2202 11.2434 59.4752 11.4234 62.7226 11.6934C65.9701 11.9934 69.2176 12.3384 72.4726 13.1184C73.1926 13.2984 73.9202 13.5159 74.6627 13.8234C75.0302 13.9809 75.4126 14.1759 75.7951 14.4684L76.0876 14.7309C76.1701 14.8209 76.2377 14.9184 76.3127 15.0159C76.4702 15.2109 76.5677 15.3984 76.6727 15.5859C77.0552 16.3434 77.2802 17.0784 77.4677 17.8134C77.6552 18.5484 77.7902 19.2759 77.9027 20.0034C78.3527 22.9134 78.5327 25.8009 78.6452 28.6734C78.7802 32.3634 78.7952 36.0534 78.6677 39.7359C78.5252 43.4184 78.3152 47.1159 77.4677 50.7309C77.1602 51.8484 76.9651 52.3209 76.8901 52.2834C76.8001 52.2384 76.7926 51.6684 76.6501 50.6859C76.5226 49.7034 76.3126 48.3084 76.2001 46.6509C76.1401 45.8184 76.0652 44.9184 76.0427 43.9659C76.0427 43.0134 76.0426 42.0084 76.0876 40.9659C76.2301 37.2609 76.2677 33.5484 76.1777 29.8509C76.1327 28.0059 76.0502 26.1609 75.9077 24.3309C75.7577 22.5159 75.5776 20.6784 75.2101 18.9759C75.0376 18.1434 74.7976 17.2809 74.5051 16.7259C74.4676 16.6659 74.4377 16.5834 74.4077 16.5384C74.3777 16.5084 74.3476 16.4709 74.3251 16.4334C74.3326 16.4109 74.2877 16.4334 74.3402 16.3809C74.2727 16.4334 74.3101 16.3884 74.2951 16.4034C74.2876 16.4034 74.2801 16.3884 74.2726 16.3809C74.2651 16.3584 74.1827 16.3209 74.1452 16.2909C73.9127 16.1484 73.5677 15.9909 73.1777 15.8634C71.6102 15.3384 69.7726 15.0309 67.9726 14.7759C64.3276 14.2809 60.6002 13.9584 56.8652 13.7034C47.9102 13.1184 38.5277 13.2834 29.3477 13.6509C24.3077 13.8759 19.2452 14.1609 14.2877 14.8509C13.0577 15.0309 11.8202 15.2334 10.6652 15.5334C10.0952 15.6834 9.50265 15.8559 9.09765 16.0734C8.96265 16.1409 8.86515 16.2084 8.80515 16.3434L8.66265 16.6509C8.60265 16.7709 8.54265 16.8984 8.50515 17.0409C7.73265 19.2534 7.42515 21.8034 7.14765 24.2709C6.54015 30.4284 6.50265 36.6759 6.58515 42.8934C6.67515 47.6109 6.86265 52.3359 7.22265 57.0384C7.40265 59.3859 7.62765 61.7334 7.96515 64.0359C8.06265 64.6059 8.14516 65.1834 8.26515 65.7384C8.37015 66.2859 8.52765 66.8784 8.69265 67.2534C8.82015 67.5084 9.30015 67.8309 9.77265 68.0484C10.2452 68.2884 10.7777 68.4609 11.3177 68.6259C14.7227 69.5484 18.3602 69.7434 21.9227 69.8934C25.5002 70.0134 29.0852 69.9984 32.6852 69.9459C34.2677 69.9084 35.8202 69.8784 37.4177 69.8409C43.3502 69.7434 45.2477 69.8484 46.5302 70.4934C46.8227 70.6359 47.2052 70.7709 47.3702 70.8984C47.9327 71.3259 45.5252 71.7984 41.1827 71.9484C34.7327 72.1884 28.0877 72.3684 21.3002 72.0384C19.6052 71.9484 17.8952 71.8284 16.1777 71.6334C14.4527 71.4384 12.7202 71.1984 10.9502 70.7409C10.0577 70.4859 9.15765 70.2009 8.19765 69.6384C7.95765 69.4959 7.71765 69.3459 7.47015 69.1134C7.15515 68.8959 6.94515 68.4909 6.72015 68.1459C6.63015 67.9734 6.60015 67.8459 6.54765 67.7109C6.50265 67.5834 6.44265 67.4334 6.41265 67.3134L6.22515 66.6159C5.82015 64.8159 5.61015 63.1134 5.40765 61.3884C4.84516 56.2809 4.56016 51.1809 4.38016 46.0734C4.22266 40.9584 4.18515 35.8434 4.35765 30.7134H4.41765V30.7059Z" fill="#231F20"/>
<path d="M36.2848 16.4702C41.2273 16.4252 46.1623 16.4777 51.1048 16.6427C52.9048 16.7027 54.7123 16.7177 56.5198 16.8377C58.7248 16.9802 60.9298 17.1677 63.1348 17.4452C64.2373 17.5877 65.3473 17.7527 66.4573 17.9852C67.0123 18.1052 67.5748 18.2402 68.1448 18.4352C68.4298 18.5327 68.7223 18.6452 69.0298 18.7952C69.3223 18.9377 69.7273 19.2302 69.9748 19.5752C70.2748 20.1302 70.5298 20.5952 70.6723 21.1052C70.8673 21.6077 70.9648 22.1102 71.0773 22.6127C71.2873 23.6102 71.3998 24.6077 71.4898 25.5902C71.7148 28.4477 71.7373 31.2902 71.6848 34.0877C71.6548 35.8877 71.6023 37.6877 71.5198 39.4802C71.4298 41.2727 71.3398 43.0652 70.9423 44.8352C70.6648 45.9377 70.6348 45.7877 70.3273 44.8352C70.1773 44.3552 69.9148 43.6727 69.7648 42.8552C69.6823 42.4427 69.5848 42.0002 69.5398 41.5277C69.5023 41.0552 69.4873 40.5602 69.5023 40.0427C69.5848 36.6752 69.6298 33.3227 69.6223 30.0077C69.6073 28.3502 69.5698 26.6927 69.3973 25.0802C69.3673 24.6677 69.2998 24.2852 69.2473 23.8877C69.2023 23.4827 69.1198 23.1077 69.0373 22.7327C68.9698 22.3427 68.8498 21.9977 68.7373 21.6452C68.6848 21.4652 68.6248 21.2927 68.5498 21.1577L68.3548 20.7527C68.3173 20.6927 68.3323 20.6852 68.1373 20.5727C67.9573 20.4752 67.7323 20.3852 67.4998 20.3027C66.5698 19.9802 65.4898 19.7777 64.4173 19.6127C63.3373 19.4477 62.2273 19.3352 61.1098 19.2452C58.8823 19.0577 56.6173 18.9677 54.3748 18.8702C49.4473 18.6527 44.4973 18.5702 39.5473 18.5777C36.5023 18.5852 33.4573 18.6302 30.4123 18.7277C28.1098 18.8027 25.7998 18.9002 23.4973 19.0427C21.2023 19.1927 18.8998 19.3652 16.6873 19.7402C16.3123 19.8077 15.9298 19.8827 15.5923 19.9802C15.3973 20.0327 15.2998 20.0702 15.2098 20.1077C15.1123 20.1527 15.0073 20.2052 14.9848 20.3177C14.9473 20.4152 14.9098 20.4602 14.8648 20.6027L14.7298 21.0452C14.6623 21.3602 14.5873 21.6677 14.5423 21.9977C14.4448 22.6502 14.3773 23.3102 14.3323 23.9852C14.2423 25.3277 14.2123 26.6777 14.1973 28.0427C14.1973 28.8152 14.1973 29.5727 14.1973 30.3452C14.1823 31.7927 14.1598 32.7452 14.0323 33.4202C13.8598 34.0952 13.6798 34.4777 13.4473 34.7852C13.3423 34.9277 13.2373 35.1077 13.1473 35.1902C12.9898 35.3252 12.8548 35.0927 12.6973 34.5677C12.5473 34.0427 12.3223 33.2177 12.2998 32.1527C12.1948 30.1427 12.1198 28.0877 12.1573 25.9802C12.1798 24.9227 12.2173 23.8652 12.3298 22.7627C12.3823 22.2152 12.4573 21.6602 12.5773 21.0827C12.6373 20.7902 12.6898 20.5052 12.7948 20.1902C12.8473 20.0252 12.8773 19.8977 12.9598 19.6952L13.3048 18.9902L13.4398 18.8252L13.4698 18.7802C13.4698 18.7802 13.4698 18.7502 13.5073 18.7802L13.5223 18.7577L13.5973 18.6827C13.6873 18.5702 13.8148 18.4952 13.9273 18.4052C14.1748 18.2552 14.4448 18.1352 14.7298 18.0452C15.1348 17.9177 15.4273 17.8577 15.7648 17.7827C16.4023 17.6477 17.0248 17.5577 17.6398 17.4677C18.8698 17.3027 20.0923 17.1752 21.3148 17.0702C26.3098 16.6577 31.2973 16.5077 36.2848 16.4102V16.4627V16.4702Z" fill="#231F20"/>
<path d="M16.9123 62.3321C18.9223 62.8571 21.1873 63.0596 23.4148 63.1946C24.2323 63.2396 25.0573 63.2096 25.8748 63.2396L30.2398 63.3671C31.7023 63.4271 33.1573 63.4646 34.6273 63.4871C35.9248 63.5096 37.2298 63.4496 38.5198 63.4496C40.1773 63.4496 41.8573 63.4721 43.5148 63.8921C44.0248 64.0496 43.9498 64.0496 43.5073 64.1921C43.0573 64.3571 42.2623 64.6871 41.3173 64.8521C39.6523 65.1371 37.9723 65.3171 36.2848 65.3546C34.5973 65.4146 32.8948 65.4371 31.1848 65.3771C29.1373 65.3096 27.0073 65.3921 24.9073 65.3396C22.5973 65.2571 20.2798 65.1221 17.9398 64.7246C17.2198 64.5971 16.4998 64.4471 15.7798 64.2146C15.0598 63.9746 14.3173 63.7271 13.6273 63.0821C13.0573 62.5346 12.9148 61.9046 12.7273 61.3496L12.5473 60.5096L12.4273 59.6771C12.3073 58.5746 12.2623 57.4946 12.2323 56.4146C12.1873 54.7421 12.1123 53.1146 12.1198 51.4646C12.1198 51.1046 12.1048 50.7446 12.1648 50.3846C12.3448 49.0421 12.6148 48.6296 12.9973 48.3746C13.0873 48.3146 13.1773 48.2396 13.2598 48.2096C13.5298 48.1046 13.7323 48.6746 13.9123 49.6571C13.9648 50.0246 14.0173 50.3921 14.0623 50.7596C14.1148 51.1271 14.0998 51.4946 14.1223 51.8621C14.1448 52.5971 14.1748 53.3396 14.1973 54.0896C14.2423 55.5746 14.3098 57.0821 14.4298 58.5296C14.4823 59.0621 14.5423 59.5871 14.6248 60.0896L14.7823 60.7946L14.8798 61.0871C14.8948 61.1321 14.9098 61.1921 14.9248 61.2296L14.9773 61.3196C15.0073 61.3646 15.0298 61.4771 15.0598 61.4771C15.0973 61.4996 15.0598 61.5221 15.1423 61.5596C15.2023 61.5971 15.2398 61.6421 15.3148 61.6871L15.5698 61.8221C15.9523 62.0021 16.4173 62.1671 16.9198 62.2796V62.3321H16.9123Z" fill="#231F20"/>
<path d="M14.2048 41.0697C14.3398 41.7297 14.2048 42.3297 14.0323 42.8322C13.8373 43.3872 13.4473 43.8897 12.9973 44.2197C12.6748 44.4672 12.3448 44.6847 11.9698 44.7897C11.3098 44.9697 10.6198 44.9247 9.99728 44.6847C9.38228 44.4372 8.84228 43.9722 8.57978 43.4022C8.35478 42.9072 8.22728 42.4047 8.22728 41.9022C8.19728 41.2647 8.51228 40.5972 9.04478 40.2597C9.21728 40.1547 9.30728 40.3122 9.40478 40.5447C9.47978 40.7772 9.67478 41.1147 9.73478 41.3097C9.75728 41.4897 9.89228 41.6622 9.90728 41.7972C9.95228 41.9397 10.0123 42.0672 10.0798 42.1722C10.1398 42.2847 10.2223 42.3522 10.2598 42.4347C10.2973 42.5247 10.3348 42.6222 10.4098 42.7197C10.6123 42.9822 11.0623 42.8622 11.3473 42.7197C11.6998 42.5547 11.9023 42.3147 11.9848 41.8647C12.0373 41.6247 11.9923 41.4222 11.8423 41.2272C11.6323 40.9197 11.1148 40.6872 10.6798 40.7772C10.3273 40.8447 10.1848 41.1372 10.1848 41.3622C10.1698 41.4072 10.1998 41.4597 10.1923 41.5047C10.1773 41.6472 10.0198 41.7147 9.38228 41.7372L8.94728 41.7672C8.46728 41.8047 8.07728 41.5872 8.00228 41.0772C7.96478 40.3122 8.39228 39.4197 9.17228 38.9322C9.97478 38.4522 10.8373 38.3622 11.6173 38.5272C12.2023 38.6622 12.7648 38.9097 13.2523 39.3447C13.7248 39.7797 14.1448 40.3872 14.2648 41.0622L14.2123 41.0772L14.2048 41.0697Z" fill="#231F20"/>
<path d="M43.792 41.2567C42.832 41.7742 41.8795 42.3142 40.9345 42.8767C40.5895 43.0792 40.2745 43.3192 39.922 43.5217C38.6995 44.2342 37.4695 44.9467 36.247 45.6517C35.707 45.9742 35.182 46.3192 34.6645 46.6717C33.997 47.1217 33.352 47.6017 32.5945 47.9092C32.1295 48.1117 32.1445 46.9192 32.872 46.3792C34.1845 45.4342 35.512 44.4967 36.952 43.6942C37.822 43.2292 38.6245 42.5842 39.4645 42.0292C40.3945 41.4217 41.332 40.8367 42.277 40.2517L44.032 39.1867C44.917 38.6467 45.832 38.1442 46.717 37.6192C47.4145 37.2217 48.037 36.7117 48.7495 36.3367C48.907 36.2542 49.0495 36.1567 49.2145 36.0892C49.8295 35.8342 50.0695 35.8642 50.3545 36.1567C50.422 36.2242 50.4895 36.2842 50.542 36.3592C50.7145 36.5992 50.572 36.9367 50.2045 37.2517C49.1545 38.2342 47.917 38.9392 46.657 39.6817C45.712 40.2217 44.7445 40.7317 43.7995 41.2942L43.777 41.2567H43.792Z" fill="#231F20"/>
<path d="M41.3697 35.4371C40.0797 36.1271 38.7747 36.8021 37.4997 37.5146L36.1197 38.3321C34.4622 39.2321 32.8197 40.1546 31.1847 41.0846C30.4647 41.5046 29.7522 41.9546 29.0622 42.4121C28.1772 42.9971 27.3147 43.6271 26.3622 44.1221C26.0697 44.2721 25.9647 44.0546 26.0547 43.6946C26.1447 43.3346 26.4222 42.8171 26.9172 42.4421C28.6722 41.1296 30.4572 39.8696 32.3922 38.8196C33.5547 38.1971 34.6647 37.3871 35.8047 36.6821C37.0647 35.9096 38.3397 35.1596 39.6147 34.4096L41.9847 33.0521C43.1772 32.3621 44.3997 31.7021 45.5772 30.9971C46.4922 30.4496 47.3397 29.8271 48.2397 29.2571C48.4347 29.1296 48.6222 28.9946 48.8247 28.8746C49.5897 28.4471 49.9047 28.4396 50.2872 28.7996C50.3772 28.8821 50.4747 28.9571 50.5422 29.0471C50.7822 29.3546 50.6097 29.7971 50.1072 30.1796C48.6222 31.3121 46.9572 32.3471 45.2322 33.3221C43.9497 34.0346 42.6597 34.7546 41.3772 35.4746L41.3547 35.4371H41.3697Z" fill="#231F20"/>
<path d="M79.1323 13.823C79.1323 13.958 79.0648 14.0855 79.0123 14.198C78.9898 14.2355 78.9148 14.243 78.8923 14.198C78.8548 14.1305 78.8173 14.0555 78.7498 13.988C78.7423 13.9655 78.5848 13.793 78.4573 13.583C78.3373 13.373 78.1723 13.148 78.0973 13.0355C77.9773 12.803 77.8873 12.5705 77.8123 12.3305C77.6698 11.843 77.4673 11.3705 77.3548 10.883C77.3323 10.778 77.3248 10.6655 77.3323 10.5455C77.3623 10.1555 77.2948 9.78055 77.1823 9.41305C77.1673 9.35305 77.1598 9.28555 77.0848 9.23305C76.9648 9.15055 76.7398 8.13805 76.7623 7.99555C76.8148 7.65055 76.8148 7.31305 76.8823 6.96055C76.8898 6.90805 76.8598 6.86305 76.9273 6.81055C77.0923 6.68305 77.0473 6.58555 77.0473 6.48055C77.0398 6.33805 77.0698 6.18805 77.1148 6.03805C77.1598 5.95555 77.2348 5.87305 77.3323 5.79055C77.4148 5.71555 77.5798 5.72305 77.6098 5.73805C77.6923 5.79055 77.7823 5.72305 77.8573 5.70055C77.8873 5.70055 77.9173 5.68555 77.9473 5.68555C77.9923 5.68555 78.2173 5.85805 78.3898 6.04555C78.5623 6.24055 78.7123 6.44305 78.7198 6.48805C78.7198 6.48805 78.7423 6.57055 78.7798 6.68305C78.8098 6.79555 78.8773 6.94555 78.9073 7.10305C78.9898 7.41055 79.0723 7.74055 79.0948 7.80055C79.1173 7.86805 79.0948 7.94305 79.0723 8.01805C79.0723 8.05555 79.3198 8.98555 79.3198 9.02305C79.3198 9.22555 79.4098 9.41305 79.2898 9.63055C79.2673 9.67555 79.2823 9.71305 79.2898 9.75055C79.3573 10.088 79.3423 10.433 79.3498 10.778C79.3498 10.958 79.3723 11.1305 79.3798 11.303C79.3798 11.333 79.3648 11.3705 79.3573 11.4005C79.3498 11.4455 79.3348 11.483 79.3348 11.5205C79.3648 11.933 79.3348 12.3605 79.4023 12.7655C79.4098 12.863 79.2523 13.343 79.2673 13.4555C79.2673 13.5155 79.1173 13.748 79.1323 13.8005V13.823Z" fill="#231F20"/>
<path d="M81.8027 16.0042C81.7877 16.1542 81.5852 16.1317 81.2852 16.0192C81.1877 15.9817 80.9627 15.7942 80.9477 15.7417C80.9252 15.6292 80.9102 15.5242 80.9102 15.4267C80.9102 15.3667 81.2177 14.6767 81.3152 14.4292C81.4052 14.1892 81.5402 13.9867 81.6827 13.7842C81.9677 13.3792 82.2602 12.9742 82.5827 12.5992C82.6502 12.5167 82.7402 12.4417 82.8377 12.3817C83.1752 12.1792 83.4302 11.9092 83.6627 11.6017C83.7002 11.5492 83.7527 11.5117 83.7452 11.4217C83.7377 11.2717 84.4352 10.5217 84.5702 10.4617C84.9302 10.2967 85.2002 10.1692 85.5152 10.0267C85.5602 10.0042 85.5827 9.95172 85.6652 9.98172C85.8602 10.0492 85.9202 9.96672 86.0102 9.92172C86.1302 9.84672 86.2727 9.79422 86.4302 9.77172C86.5127 9.75672 86.6252 9.78672 86.7227 9.79422C86.8127 9.80172 86.9177 9.97422 86.9177 10.0117C86.9177 10.1017 87.0152 10.1467 87.0752 10.2067C87.0977 10.2292 87.1202 10.2517 87.1352 10.2742C87.1502 10.2967 87.0977 10.5367 87.0602 10.8067C87.0002 11.0467 86.9477 11.3092 86.9102 11.3317C86.9102 11.3392 86.7227 11.5642 86.5352 11.8042C86.3552 12.0367 86.1677 12.2842 86.1152 12.3442C86.0777 12.4042 85.9952 12.4192 85.9277 12.4417C85.8902 12.4492 85.3427 13.1692 85.3127 13.1917C85.1627 13.3042 85.0727 13.4842 84.8327 13.4992C84.7877 13.4992 84.7652 13.5367 84.7352 13.5667C84.5252 13.8067 84.2552 13.9942 84.0002 14.2042C83.8727 14.3092 83.7752 14.4442 83.6552 14.5567C83.6327 14.5792 83.5952 14.5867 83.5652 14.6017C83.5277 14.6167 83.4902 14.6317 83.4602 14.6617C83.1977 14.9467 82.8602 15.1792 82.6352 15.5017C82.5827 15.5767 82.1702 15.7942 82.1177 15.8842C82.0877 15.9292 81.7952 15.9442 81.7877 16.0042H81.8027Z" fill="#231F20"/>
<path d="M81.5999 18.9981C81.4574 19.0656 81.3374 18.9081 81.2249 18.6306C81.1874 18.5406 81.1948 18.2781 81.2323 18.2406C81.3148 18.1656 81.3898 18.0831 81.4723 18.0231C81.5248 17.9931 82.3198 17.7606 82.5973 17.6481C82.8598 17.5431 83.1299 17.5281 83.3924 17.5056L85.0123 17.3856C85.1323 17.3856 85.2523 17.3856 85.3723 17.4231C85.7773 17.5431 86.1898 17.5431 86.6023 17.4981C86.6698 17.4981 86.7373 17.4981 86.8123 17.4306C86.9323 17.3106 88.0498 17.3706 88.1848 17.4306C88.5298 17.5956 88.8823 17.7081 89.2273 17.8431C89.2798 17.8656 89.3323 17.8431 89.3698 17.9331C89.4598 18.1506 89.5723 18.1281 89.6773 18.1506C89.8273 18.1881 89.9773 18.2406 90.1198 18.3231C90.1948 18.3681 90.2548 18.4881 90.3148 18.5856C90.3748 18.6756 90.2998 18.9756 90.2773 19.0056C90.2023 19.0956 90.2398 19.2381 90.2323 19.3656C90.2323 19.4106 90.2323 19.4631 90.2173 19.5006C90.2023 19.5756 89.2873 20.0181 89.1973 20.0106C89.1898 20.0106 88.8673 20.0181 88.5298 20.0331C88.1923 20.0481 87.8398 20.0631 87.7723 20.0781C87.6973 20.0931 87.6223 20.0406 87.5548 20.0031C87.5173 19.9806 86.5123 20.0781 86.4748 20.0481C86.2723 19.9956 86.0623 20.0481 85.8673 19.8456C85.8298 19.8081 85.7848 19.8156 85.7473 19.8081C85.3873 19.7931 85.0349 19.6881 84.6824 19.6131C84.5024 19.5756 84.3148 19.5756 84.1348 19.5606C84.1048 19.5606 84.0674 19.5306 84.0374 19.5156C83.9999 19.5006 83.9548 19.4781 83.9173 19.4706C83.4823 19.4481 83.0549 19.3431 82.6199 19.3581C82.5224 19.3581 82.0423 19.1481 81.9298 19.1631C81.8623 19.1631 81.6523 18.9456 81.5923 18.9756L81.5999 18.9981Z" fill="#231F20"/>
<path d="M71.5871 87.8093C71.5871 87.8093 67.8446 81.1643 68.9846 80.7518C70.1246 80.3393 79.5971 76.2668 79.5971 76.2668L83.0846 74.4668L88.8446 82.0268C88.8446 82.0268 85.1246 79.7993 84.8021 82.8668C84.4721 85.9793 79.9046 88.2518 78.2846 86.9843C75.5996 84.8693 72.4796 88.5818 72.5921 89.4518C72.7046 90.3218 71.5871 87.8168 71.5871 87.8168V87.8093Z" fill="#231F20"/>
<path d="M79.9645 70.0728C79.0345 68.3403 78.172 66.5853 77.3845 64.7703C77.0995 64.1028 76.7845 63.4578 76.5295 62.8053C75.622 60.5028 74.7895 58.2078 73.507 56.1978C73.2145 55.7553 72.8995 55.3353 72.547 54.9603C72.382 54.7578 72.2095 54.5703 72.0145 54.3978C71.827 54.2253 71.647 54.0378 71.4445 53.8803L70.6495 53.3103C70.372 53.1453 70.1095 52.9578 69.8395 52.7703L68.9695 52.2978C68.677 52.1403 68.3545 52.0428 68.032 51.9003C67.6345 51.7278 67.6945 51.5778 68.107 51.4203C68.317 51.3378 68.6095 51.2553 68.9845 51.1803C69.3595 51.1128 69.787 51.1353 70.252 51.2178C70.6645 51.2853 71.032 51.4578 71.437 51.5853C71.647 51.6378 71.8195 51.7503 71.9845 51.8703L72.4945 52.2078C72.847 52.4253 73.132 52.7103 73.447 52.9653C73.7695 53.2203 74.032 53.5203 74.2795 53.8278C75.292 55.0578 76.0345 56.4228 76.612 57.8178C77.302 59.4828 78.0145 61.1703 78.637 62.8278C79.2895 64.6278 80.0695 66.3978 80.9095 68.1378C81.427 69.2103 81.9745 70.2753 82.5445 71.3253C83.4145 72.9078 84.322 74.4903 85.3045 75.9978C86.0695 77.1678 86.902 78.2628 87.712 79.3803C87.892 79.6278 88.072 79.8678 88.252 80.1153C88.882 81.0678 88.9495 81.4578 88.867 81.8178C88.8445 81.9003 88.837 81.9978 88.7995 82.0578C88.6945 82.2678 88.267 81.9903 87.6595 81.3978C85.9795 79.5378 84.457 77.3853 83.002 75.1803C81.922 73.5378 80.902 71.8353 79.927 70.1178L79.9645 70.0953V70.0728Z" fill="#231F20"/>
<path d="M63.0677 49.1926C63.4202 49.4776 63.7652 49.7626 64.0652 50.0776C64.3877 50.3776 64.6802 50.7001 64.9652 51.0226C65.1827 51.2476 65.4077 51.4651 65.5952 51.7126C66.2552 52.5901 66.8327 53.5201 67.3052 54.4876C67.5227 54.9151 67.7402 55.3351 67.9727 55.7401C68.3027 56.2501 68.4452 56.8651 68.5277 57.4726C68.5502 57.6676 68.4077 57.6976 68.1677 57.6376C67.9352 57.5701 67.5377 57.4426 67.2902 57.2026L66.9602 56.8801C66.8477 56.7751 66.7952 56.6401 66.7127 56.5201C66.5552 56.2801 66.3977 56.0401 66.2477 55.7926C66.0977 55.5451 65.9402 55.3126 65.7977 55.0576C65.6702 54.7951 65.5502 54.5326 65.4227 54.2701C65.1302 53.6251 64.6127 53.1076 64.1552 52.5676C63.9152 52.2601 63.6377 51.9976 63.3752 51.7051C63.0977 51.4426 62.8202 51.1726 62.5202 50.9326L61.9577 50.5051C61.7627 50.3701 61.5602 50.2651 61.3577 50.1451C61.0577 49.9501 60.7202 49.8451 60.3977 49.6951C60.0677 49.5826 59.7227 49.5001 59.3852 49.4476C59.1152 49.4401 58.8527 49.4551 58.5902 49.4776C58.3277 49.5376 58.0802 49.6276 57.8327 49.6801C57.7202 49.6951 57.6227 49.7551 57.5102 49.7851C57.1277 49.9576 56.8952 49.5826 56.6927 49.2751C56.6477 49.2001 56.5952 49.1251 56.5577 49.0576C56.4977 48.9451 56.4977 48.8251 56.5502 48.6601C56.6027 48.5026 56.6927 48.2626 56.8652 48.1276C57.9152 47.4301 59.3777 47.4676 60.6002 47.8576C61.0652 47.9851 61.4927 48.2101 61.9202 48.4051C62.3102 48.6526 62.7377 48.8701 63.0902 49.1551L63.0677 49.1926Z" fill="#231F20"/>
<path d="M53.8728 61.7769C55.0503 62.2194 56.1978 62.6544 57.3003 62.8944C57.8478 63.0144 58.3803 63.0819 58.8228 63.0444C59.0478 63.0369 59.2278 62.9844 59.3928 62.9319L59.4378 62.9094C59.4378 62.9094 59.4603 62.9094 59.4678 62.9019C59.4903 62.8869 59.5128 62.8719 59.5353 62.8494C59.5803 62.8269 59.5878 62.7744 59.5803 62.7294C59.5653 62.6694 59.5803 62.6769 59.5203 62.5569C59.3403 62.1744 59.0853 61.7544 58.8228 61.3494C58.2903 60.5244 57.6903 59.7069 57.0753 58.8969C56.0778 57.5769 54.9903 56.3094 53.9553 54.9894C52.1253 52.6644 50.2878 50.3394 48.6153 47.8269C48.2028 47.1894 47.7978 46.5444 47.4453 45.8394C47.3478 45.6669 47.2578 45.4869 47.1678 45.3069C47.1228 45.2094 47.0778 45.1269 47.0403 45.0219C46.9953 44.8944 46.9203 44.7519 46.8903 44.6094C46.7028 44.0469 46.6578 43.4619 46.8978 42.9744C47.1528 42.4794 47.6928 42.2094 48.2178 42.0744C48.4878 41.9994 48.7803 42.0294 49.0578 42.0294C49.3578 42.0594 49.5903 42.1119 49.7853 42.1719C50.6178 42.4194 51.3153 42.8019 51.9753 43.2219C54.2703 44.7444 56.1903 46.6269 57.9678 48.5844C59.1003 49.8519 60.1878 51.1719 61.1478 52.5894C62.0928 54.0069 62.9928 55.5069 63.4053 57.2094C63.4278 57.7794 63.4053 58.0269 63.3228 58.0419C63.2403 58.0569 63.0678 57.8394 62.6853 57.5244C62.4603 57.3819 62.2878 57.1719 62.0628 56.9544C61.8378 56.7219 61.5903 56.4744 61.3278 56.2119C60.8253 55.6569 60.3003 54.9894 59.7753 54.2244C57.9228 51.5244 55.7328 48.9819 53.2953 46.8144C52.0878 45.7494 50.7453 44.7369 49.4853 44.1894C49.3353 44.1444 49.1778 44.0694 49.0503 44.0544C49.0053 44.0319 48.9903 44.0319 48.9528 44.0244C48.8928 44.0169 48.8028 44.0244 48.7578 44.0919C48.7203 44.1519 48.7353 44.2419 48.7428 44.3244C48.8253 44.6019 48.9753 45.0144 49.1703 45.3519C50.1003 47.0544 51.3903 48.7194 52.6878 50.3544C54.0153 51.9894 55.3578 53.6319 56.6853 55.2594C57.6528 56.4744 58.6203 57.6894 59.5503 58.9644C60.0153 59.6019 60.4653 60.2544 60.8928 60.9594C60.9978 61.1394 61.1028 61.3194 61.2003 61.5069C61.2528 61.6044 61.2903 61.6869 61.3503 61.8144C61.4178 61.9569 61.4703 62.0994 61.5228 62.2419C61.7328 62.8044 61.7628 63.4719 61.3578 63.9219C61.1628 64.1469 60.9303 64.3419 60.6903 64.5219C60.5778 64.6044 60.4053 64.6794 60.2778 64.7544C60.1653 64.8219 60.0453 64.8519 59.9253 64.8894C59.4528 65.0544 58.9803 65.0994 58.5378 65.0994C57.6528 65.0994 56.8428 64.9194 56.0628 64.7169C54.6228 64.3194 53.2878 63.7794 51.9753 63.2919C51.3228 63.0594 50.6628 62.8269 50.0628 62.7369C49.7703 62.6844 49.4928 62.7219 49.4553 62.7519C49.4553 62.7744 49.4328 62.7519 49.4178 62.8119C49.3953 62.8494 49.3878 62.9844 49.3878 63.0894C49.3878 63.4344 49.5678 63.8169 49.8603 64.1769C50.1378 64.5369 50.5053 64.8744 50.9103 65.1819C51.7128 65.8044 52.6353 66.3369 53.5653 66.8319C55.4478 67.8144 57.4203 68.6694 59.3928 69.5094C60.9228 70.1619 62.4528 70.7919 63.9753 71.4819C65.4903 72.1794 66.9978 72.9144 68.4153 73.9644C69.0303 74.4294 69.6528 74.9694 70.1403 75.6294C70.5528 76.1769 70.8828 76.6569 71.1303 77.0694C71.3778 77.4894 71.5278 77.8494 71.6478 78.1494C71.7603 78.4494 71.8353 78.6969 71.8653 78.9219C71.8878 79.1469 71.8653 79.3494 71.8503 79.5294C71.8278 79.6944 71.8503 79.8894 71.8203 79.9944C71.7903 80.3319 70.7628 79.6194 69.5703 78.0969L68.9103 77.2419C68.6928 76.9644 68.4453 76.6419 68.2503 76.4544C67.8303 76.0119 67.3053 75.5994 66.7278 75.2094C65.5653 74.4444 64.2528 73.7769 62.9028 73.1469C60.1878 71.8869 57.3078 70.7244 54.4278 69.4119C53.3553 68.9169 52.2903 68.3919 51.2253 67.7619C50.1753 67.1019 49.0878 66.4569 48.1428 65.2044C47.6853 64.5744 47.2878 63.6744 47.4153 62.6094C47.4153 62.4894 47.4828 62.2944 47.5278 62.1444C47.5653 61.9944 47.6628 61.8144 47.7828 61.6419C47.8878 61.4694 48.0303 61.3269 48.1953 61.1994C48.3603 61.0569 48.5253 60.9669 48.6828 60.9069C49.3428 60.6444 49.8228 60.6894 50.1978 60.7269C50.9778 60.8169 51.5703 61.0119 52.1628 61.1844C52.7478 61.3719 53.3028 61.5669 53.8503 61.7544L53.8353 61.8069L53.8728 61.7769Z" fill="#231F20"/>
<path d="M75.6526 79.3875C74.3026 79.83 72.9226 80.1975 71.6776 80.7525C71.4526 80.85 71.2276 80.9625 71.0251 81.075L70.7176 81.2475C70.6276 81.3 70.4851 81.375 70.4776 81.375C70.3501 81.435 70.1626 81.48 70.1551 81.6525C70.1551 81.72 70.1476 81.72 70.1551 81.84C70.1701 81.9675 70.2226 82.1175 70.2526 82.26L70.5001 83.145C70.6651 83.7525 70.8751 84.36 71.1076 84.9525C71.4001 85.68 71.7451 86.4 72.1126 87.09C72.3676 87.525 72.5851 87.975 72.8026 88.4325C72.9076 88.6575 73.0276 88.8825 73.1026 89.1225C73.1776 89.37 73.2526 89.625 73.3351 89.8725C73.4251 90.195 73.3126 90.2475 72.9301 90.2025C72.7426 90.18 72.4726 90.1275 72.1651 90.045C72.0151 90 71.8351 89.9625 71.6926 89.8875C71.5576 89.805 71.4226 89.715 71.3101 89.6025C71.1001 89.4 70.9126 89.1975 70.7176 88.995L70.4326 88.68L70.2001 88.335C69.9001 87.8775 69.6076 87.405 69.3526 86.9175C68.9101 85.9125 68.5426 84.87 68.2951 83.7525L68.1151 82.8C68.0851 82.635 68.0476 82.4775 68.0251 82.2975C67.9726 82.0725 67.9576 81.81 67.9351 81.5625C67.9276 81.285 67.9951 81 68.1076 80.745C68.2651 80.505 68.4826 80.31 68.7076 80.13C68.9251 79.935 69.1651 79.785 69.4051 79.635C69.6151 79.5075 69.7576 79.44 69.9376 79.3575C70.6276 79.035 71.3101 78.78 71.9926 78.525L74.0026 77.7525C74.8276 77.445 75.6451 77.145 76.4626 76.8225C77.6851 76.3275 78.9301 75.8625 80.0926 75.27C80.9926 74.805 81.7951 74.205 82.5751 73.62C82.7476 73.4925 82.8976 73.3425 83.0776 73.215C83.7301 72.7725 84.0526 72.81 84.5251 73.1475C84.6376 73.23 84.7576 73.2975 84.8476 73.38C85.1701 73.665 85.1176 74.175 84.6976 74.715C83.3551 76.1775 81.5401 77.0925 79.7551 77.9025C78.4201 78.495 77.0326 78.9375 75.6826 79.4175L75.6601 79.3725L75.6526 79.3875Z" fill="#231F20"/>
</svg>
