<svg width="65" height="64" viewBox="0 0 65 64" fill="none" xmlns="http://www.w3.org/2000/svg">
<path d="M8.66699 56V44.8372L20.4864 33.0178L10.3086 22.7743C9.78327 22.249 9.40067 21.658 9.16078 21.0014C8.91914 20.3447 8.79832 19.6881 8.79832 19.0315C8.79832 18.3748 8.91914 17.7296 9.16078 17.0957C9.40067 16.4601 9.78327 15.8796 10.3086 15.3543L15.299 10.3639C15.8243 9.83858 16.4153 9.4551 17.0719 9.21346C17.7286 8.97357 18.3852 8.85363 19.0418 8.85363C19.6985 8.85363 20.3446 8.97357 20.9802 9.21346C21.6141 9.4551 22.1937 9.83858 22.719 10.3639L32.9625 20.6074L44.7162 8.78796C44.9789 8.52531 45.2634 8.32832 45.5699 8.19699C45.8763 8.06566 46.2046 8 46.5548 8C46.905 8 47.2438 8.06566 47.5713 8.19699C47.9005 8.32832 48.1964 8.52531 48.4591 8.78796L55.879 16.2079C56.1417 16.4706 56.3387 16.7551 56.47 17.0616C56.6013 17.368 56.667 17.6963 56.667 18.0465C56.667 18.3967 56.6013 18.7364 56.47 19.0656C56.3387 19.3931 56.1417 19.6881 55.879 19.9508L44.1253 31.7045L54.3031 41.948C54.8284 42.4733 55.211 43.0643 55.4509 43.7209C55.6925 44.3776 55.8134 45.0342 55.8134 45.6908C55.8134 46.3475 55.6925 46.9927 55.4509 47.6266C55.211 48.2622 54.8284 48.8427 54.3031 49.368L49.3127 54.3584C48.7874 54.8837 48.2069 55.2663 47.5713 55.5062C46.9374 55.7479 46.2922 55.8687 45.6355 55.8687C44.9789 55.8687 44.3223 55.7479 43.6656 55.5062C43.009 55.2663 42.418 54.8837 41.8927 54.3584L31.6492 44.1149L19.8298 56H8.66699ZM24.2292 29.275L29.2197 24.2845L26.0678 21.1327L22.916 24.2189L19.2388 20.5417L22.325 17.3899L18.9762 14.1067L14.0514 19.0971L24.2292 29.275ZM45.5699 50.6156L50.5603 45.6252L47.2114 42.342L44.1253 45.4282L40.3825 41.751L43.5343 38.5992L40.3168 35.4473L35.3264 40.4378L45.5699 50.6156ZM13.9201 50.7469H17.5972L42.8777 25.5321L39.1348 21.7893L13.9201 47.0698V50.7469ZM46.5548 21.7893L50.2976 18.0465L46.5548 14.3694L42.8777 18.0465L46.5548 21.7893Z" fill="black"/>
</svg>
